<mxfile host="app.diagrams.net" agent="Mozilla/5.0 (Macintosh; Intel Mac OS X 10_15_7) AppleWebKit/537.36 (KHTML, like Gecko) Chrome/141.0.0.0 Safari/537.36" version="28.2.7" pages="2">
  <diagram name="Health" id="vBXDmP91orOdvJJznFK_">
    <mxGraphModel dx="1584" dy="851" grid="1" gridSize="10" guides="1" tooltips="1" connect="1" arrows="1" fold="1" page="1" pageScale="1" pageWidth="850" pageHeight="1100" math="0" shadow="0">
      <root>
        <mxCell id="0" />
        <mxCell id="1" parent="0" />
        <mxCell id="Lm_wXHb1BFs4mjGN_8Cl-1" value="Google Cloud Platform" style="rounded=1;whiteSpace=wrap;html=1;strokeWidth=2;container=1;collapsible=0;recursiveResize=0;fillColor=#f5f5f5;strokeColor=#666666;dropTarget=1;dashed=1;shadow=1;arcSize=2;verticalAlign=top;align=left;spacingLeft=27;fontColor=#333333;" parent="1" vertex="1">
          <mxGeometry x="330" y="240" width="910" height="640" as="geometry" />
        </mxCell>
        <mxCell id="6PBwBM9vEKT9sHQ2U_Us-2" value="" style="group" vertex="1" connectable="0" parent="Lm_wXHb1BFs4mjGN_8Cl-1">
          <mxGeometry x="95" y="380" width="680" height="150" as="geometry" />
        </mxCell>
        <mxCell id="6PBwBM9vEKT9sHQ2U_Us-3" value="Loyalty" style="rounded=1;whiteSpace=wrap;html=1;strokeWidth=2;container=1;collapsible=0;recursiveResize=0;fillColor=#f5f5f5;strokeColor=#666666;dropTarget=1;dashed=1;shadow=1;arcSize=2;verticalAlign=top;align=left;spacingLeft=27;fontColor=#333333;" vertex="1" parent="6PBwBM9vEKT9sHQ2U_Us-2">
          <mxGeometry width="680" height="150" as="geometry" />
        </mxCell>
        <mxCell id="6PBwBM9vEKT9sHQ2U_Us-4" value="Loyalty Endpoint" style="strokeColor=#666666;shadow=1;strokeWidth=2;rounded=1;absoluteArcSize=1;arcSize=2;fillColor=#f5f5f5;fontColor=#333333;spacingTop=10;spacingLeft=28;dropTarget=0;" vertex="1" parent="6PBwBM9vEKT9sHQ2U_Us-2">
          <mxGeometry x="14.879999999999995" y="60" width="160" height="40" as="geometry" />
        </mxCell>
        <mxCell id="6PBwBM9vEKT9sHQ2U_Us-5" value="Cloud Run" style="editableCssRules=.*;html=1;fontColor=#999999;shape=image;verticalLabelPosition=middle;verticalAlign=top;labelPosition=right;align=left;spacingLeft=5;part=1;points=[];imageAspect=0;image=data:image/svg+xml,PHN2ZyB4bWxucz0iaHR0cDovL3d3dy53My5vcmcvMjAwMC9zdmciIHhtbG5zOnY9Imh0dHBzOi8vdmVjdGEuaW8vbmFubyIgd2lkdGg9IjM2NS40NjQ5OTY3NzA0MjQ5MyIgaGVpZ2h0PSIzNzkuMjIyOTk0NDYzNTc3OTUiIHZpZXdCb3g9IjAgMCA5Ni42OTU5OTkxNDU1MDc4MSAxMDAuMzM1OTk4NTM1MTU2MjUiPiYjeGE7PHN0eWxlIHR5cGU9InRleHQvY3NzIj4mI3hhOwkuc3Qwe2ZpbGw6IzQyODVmNDt9JiN4YTsJLnN0MXtmaWxsOiNhZWNiZmE7fSYjeGE7PC9zdHlsZT4mI3hhOwk8cGF0aCBjbGFzcz0ic3QwIiBkPSJNMjkuNzk0IDEwMC4zMzZMNDYuOTIgNTAuMTY4aDQ5Ljc3NnpNMCA5OS42NzFsMTIuOTc2LTQ5LjUwMkgyOS4yMkwxNi44OTcgOTIuMDU0eiIvPiYjeGE7CTxwYXRoIGNsYXNzPSJzdDEiIGQ9Ik0yOS43OTQgMEw0Ni45MiA1MC4xNjhoNDkuNzc2ek0wIC42NjZsMTIuOTc2IDQ5LjUwMkgyOS4yMkwxNi44OTcgOC4yODN6Ii8+JiN4YTs8L3N2Zz4=;spacingTop=-7;spacing=0;connectable=0;allowArrows=0;" vertex="1" parent="6PBwBM9vEKT9sHQ2U_Us-4">
          <mxGeometry width="30" height="30" relative="1" as="geometry">
            <mxPoint x="5" y="5" as="offset" />
          </mxGeometry>
        </mxCell>
        <mxCell id="6PBwBM9vEKT9sHQ2U_Us-6" value="BS" style="text;html=1;align=right;verticalAlign=top;whiteSpace=wrap;rounded=0;spacing=4;spacingTop=-6;fontColor=#999999;connectable=0;allowArrows=0;" vertex="1" parent="6PBwBM9vEKT9sHQ2U_Us-4">
          <mxGeometry x="138" width="22" height="15" as="geometry" />
        </mxCell>
        <mxCell id="6PBwBM9vEKT9sHQ2U_Us-7" value="Kafka" style="strokeWidth=2;html=1;shape=stencil(zVbBcsIgEP0ajulgqGM9dqK9tZcePK8RlREhA1Tt35eEZDQmcXDrTHtj3w7v7bIPBsIyu4WCk5Qq2HPCZiRNZ8Lw3HloBg587FfbkElpCI8hfKlDsEW5ocIOYAQsJQ8Z64ze8aNYuZpBqC03wpVZNif0lZSUlLAs10p5EqGVbWUu8p4MhCoLOwUy+kTHQee7BkJUeIk9d9y00HODH4uAkPTtDi2cFEZp+oySmqO0pm2tp3QcK/d+v97oSixS6zGdTSLVPjGddaY2ihX7vRdjpTBKFCeFumH02h7RE1tgJobz4mM6i75lQ52xzCNDjybLlpDvNkZ/qVVvlQWUD3In0aT3+sDP5fc+fP39NwRSqAuCCYIBTO4Xpl2CaVxYU5wSOAmbGO2gPIQWvQSz4YmnSdYSNi332iPnRRfurxbTMIbh7xpGTCeX2vIbt8DjHYtV6IAvWbbWht8w7FpIGT4TN1TvcvV/NyUlaFP2n3+TGzzGaltnDhUaPokV8AM=);whiteSpace=wrap;fillColor=#f5f5f5;container=0;collapsible=0;recursiveResize=1;dropTarget=1;spacingRight=24;shadow=1;spacingTop=10;spacingLeft=28;align=center;strokeColor=#666666;fontColor=#333333;" vertex="1" parent="6PBwBM9vEKT9sHQ2U_Us-2">
          <mxGeometry x="220" y="59.999999999999886" width="160" height="40" as="geometry" />
        </mxCell>
        <mxCell id="6PBwBM9vEKT9sHQ2U_Us-8" value="Pub/Sub" style="editableCssRules=.*;html=1;fontColor=#999999;shape=image;verticalLabelPosition=middle;verticalAlign=top;labelPosition=right;align=left;spacingLeft=5;part=1;points=[];imageAspect=0;image=data:image/svg+xml,PHN2ZyB4bWxucz0iaHR0cDovL3d3dy53My5vcmcvMjAwMC9zdmciIHhtbG5zOnY9Imh0dHBzOi8vdmVjdGEuaW8vbmFubyIgd2lkdGg9IjE4LjMxOTk5OTY5NDgyNDIyIiBoZWlnaHQ9IjIwLjAwMDAwMTkwNzM0ODYzMyIgdmlld0JveD0iMCAwIDE4LjMxOTk5OTY5NDgyNDIyIDIwLjAwMDAwMTkwNzM0ODYzMyI+JiN4YTsJPHN0eWxlIHR5cGU9InRleHQvY3NzIj4mI3hhOwkuc3Qwe2ZpbGw6IzY2OWRmNjt9JiN4YTsJLnN0MXtmaWxsOiM0Mjg1ZjQ7fSYjeGE7CS5zdDJ7ZmlsbDojYWVjYmZhO30mI3hhOwk8L3N0eWxlPiYjeGE7CTxkZWZzPiYjeGE7CQk8ZmlsdGVyIGlkPSJBIiB4PSI0LjY0IiB5PSI0LjE5IiB3aWR0aD0iMTQuNzMiIGhlaWdodD0iMTIuNzYiIGZpbHRlclVuaXRzPSJ1c2VyU3BhY2VPblVzZSIgY29sb3ItaW50ZXJwb2xhdGlvbi1maWx0ZXJzPSJzUkdCIj4mI3hhOwkJCTxmZUZsb29kIGZsb29kLWNvbG9yPSIjZmZmIi8+JiN4YTsJCQk8ZmVCbGVuZCBpbj0iU291cmNlR3JhcGhpYyIvPiYjeGE7CQk8L2ZpbHRlcj4mI3hhOwkJPG1hc2sgaWQ9IkIiIHg9IjQuNjQiIHk9IjQuMTkiIHdpZHRoPSIxNC43MyIgaGVpZ2h0PSIxMi43NiIgbWFza1VuaXRzPSJ1c2VyU3BhY2VPblVzZSI+JiN4YTsJCQk8Y2lyY2xlIGN4PSIxMiIgY3k9IjEyLjIzIiByPSIzLjU4IiBmaWx0ZXI9InVybCgjQSkiLz4mI3hhOwkJPC9tYXNrPiYjeGE7CTwvZGVmcz4mI3hhOwk8ZyBjbGFzcz0ic3QwIj4mI3hhOwkJPGNpcmNsZSBjeD0iMTYuMTMiIGN5PSI2LjIxIiByPSIxLjcyIi8+JiN4YTsJCTxjaXJjbGUgY3g9IjIuMTkiIGN5PSI2LjIxIiByPSIxLjcyIi8+JiN4YTsJCTxjaXJjbGUgY3g9IjkuMTYiIGN5PSIxOC4yOCIgcj0iMS43MiIvPiYjeGE7CTwvZz4mI3hhOwk8ZyBtYXNrPSJ1cmwoI0IpIiB0cmFuc2Zvcm09InRyYW5zbGF0ZSgtMi44NCAtMikiPiYjeGE7CQk8cGF0aCB0cmFuc2Zvcm09Im1hdHJpeCguNSAtLjg3IC44NyAuNSAtNC41OSAyMC41MykiIGQ9Ik0xNC42OSAxMC4yMmgxLjU5djguMDRoLTEuNTl6IiBjbGFzcz0ic3QxIi8+JiN4YTsJCTxwYXRoIHRyYW5zZm9ybT0icm90YXRlKDMzMCA4LjUyMyAxNC4yNDQpIiBkPSJNNC40OSAxMy40NWg4LjA0djEuNTlINC40OXoiIGNsYXNzPSJzdDEiLz4mI3hhOwkJPHBhdGggZD0iTTExLjIgNC4xOWgxLjU5djguMDRIMTEuMnoiIGNsYXNzPSJzdDEiLz4mI3hhOwk8L2c+JiN4YTsJPGcgY2xhc3M9InN0MiI+JiN4YTsJCTxjaXJjbGUgY3g9IjkuMTYiIGN5PSIxMC4yMyIgcj0iMi43OCIvPiYjeGE7CQk8Y2lyY2xlIGN4PSIyLjE5IiBjeT0iMTQuMjUiIHI9IjIuMTkiLz4mI3hhOwkJPGNpcmNsZSBjeD0iMTYuMTMiIGN5PSIxNC4yNSIgcj0iMi4xOSIvPiYjeGE7CQk8Y2lyY2xlIGN4PSI5LjE2IiBjeT0iMi4xOSIgcj0iMi4xOSIvPiYjeGE7CTwvZz4mI3hhOzwvc3ZnPg==;spacingTop=-7;spacing=0;resizeWidth=0;resizable=0;perimeterSpacing=0;connectable=0;allowArrows=0;" vertex="1" parent="6PBwBM9vEKT9sHQ2U_Us-7">
          <mxGeometry x="5" y="5" width="27" height="30" as="geometry" />
        </mxCell>
        <mxCell id="6PBwBM9vEKT9sHQ2U_Us-9" value="Loyalty Consumer" style="strokeColor=#666666;shadow=1;strokeWidth=2;rounded=1;absoluteArcSize=1;arcSize=2;fillColor=#f5f5f5;fontColor=#333333;spacingTop=10;spacingLeft=28;dropTarget=0;" vertex="1" parent="6PBwBM9vEKT9sHQ2U_Us-2">
          <mxGeometry x="420" y="60" width="160" height="40" as="geometry" />
        </mxCell>
        <mxCell id="6PBwBM9vEKT9sHQ2U_Us-10" value="Cloud Run" style="editableCssRules=.*;html=1;fontColor=#999999;shape=image;verticalLabelPosition=middle;verticalAlign=top;labelPosition=right;align=left;spacingLeft=5;part=1;points=[];imageAspect=0;image=data:image/svg+xml,PHN2ZyB4bWxucz0iaHR0cDovL3d3dy53My5vcmcvMjAwMC9zdmciIHhtbG5zOnY9Imh0dHBzOi8vdmVjdGEuaW8vbmFubyIgd2lkdGg9IjM2NS40NjQ5OTY3NzA0MjQ5MyIgaGVpZ2h0PSIzNzkuMjIyOTk0NDYzNTc3OTUiIHZpZXdCb3g9IjAgMCA5Ni42OTU5OTkxNDU1MDc4MSAxMDAuMzM1OTk4NTM1MTU2MjUiPiYjeGE7PHN0eWxlIHR5cGU9InRleHQvY3NzIj4mI3hhOwkuc3Qwe2ZpbGw6IzQyODVmNDt9JiN4YTsJLnN0MXtmaWxsOiNhZWNiZmE7fSYjeGE7PC9zdHlsZT4mI3hhOwk8cGF0aCBjbGFzcz0ic3QwIiBkPSJNMjkuNzk0IDEwMC4zMzZMNDYuOTIgNTAuMTY4aDQ5Ljc3NnpNMCA5OS42NzFsMTIuOTc2LTQ5LjUwMkgyOS4yMkwxNi44OTcgOTIuMDU0eiIvPiYjeGE7CTxwYXRoIGNsYXNzPSJzdDEiIGQ9Ik0yOS43OTQgMEw0Ni45MiA1MC4xNjhoNDkuNzc2ek0wIC42NjZsMTIuOTc2IDQ5LjUwMkgyOS4yMkwxNi44OTcgOC4yODN6Ii8+JiN4YTs8L3N2Zz4=;spacingTop=-7;spacing=0;connectable=0;allowArrows=0;" vertex="1" parent="6PBwBM9vEKT9sHQ2U_Us-9">
          <mxGeometry width="30" height="30" relative="1" as="geometry">
            <mxPoint x="5" y="5" as="offset" />
          </mxGeometry>
        </mxCell>
        <mxCell id="6PBwBM9vEKT9sHQ2U_Us-11" value="BS" style="text;html=1;align=right;verticalAlign=top;whiteSpace=wrap;rounded=0;spacing=4;spacingTop=-6;fontColor=#999999;connectable=0;allowArrows=0;" vertex="1" parent="6PBwBM9vEKT9sHQ2U_Us-9">
          <mxGeometry x="138" width="22" height="15" as="geometry" />
        </mxCell>
        <mxCell id="6PBwBM9vEKT9sHQ2U_Us-12" style="edgeStyle=orthogonalEdgeStyle;rounded=0;orthogonalLoop=1;jettySize=auto;html=1;" edge="1" parent="6PBwBM9vEKT9sHQ2U_Us-2" source="6PBwBM9vEKT9sHQ2U_Us-4" target="6PBwBM9vEKT9sHQ2U_Us-7">
          <mxGeometry relative="1" as="geometry" />
        </mxCell>
        <mxCell id="6PBwBM9vEKT9sHQ2U_Us-13" style="edgeStyle=orthogonalEdgeStyle;rounded=0;orthogonalLoop=1;jettySize=auto;html=1;entryX=0;entryY=0.5;entryDx=0;entryDy=0;" edge="1" parent="6PBwBM9vEKT9sHQ2U_Us-2" source="6PBwBM9vEKT9sHQ2U_Us-7" target="6PBwBM9vEKT9sHQ2U_Us-9">
          <mxGeometry relative="1" as="geometry" />
        </mxCell>
        <mxCell id="6PBwBM9vEKT9sHQ2U_Us-1" value="" style="group" vertex="1" connectable="0" parent="Lm_wXHb1BFs4mjGN_8Cl-1">
          <mxGeometry x="100" y="190" width="680" height="150" as="geometry" />
        </mxCell>
        <mxCell id="Lm_wXHb1BFs4mjGN_8Cl-31" value="CoreComm" style="rounded=1;whiteSpace=wrap;html=1;strokeWidth=2;container=1;collapsible=0;recursiveResize=0;fillColor=#f5f5f5;strokeColor=#666666;dropTarget=1;dashed=1;shadow=1;arcSize=2;verticalAlign=top;align=left;spacingLeft=27;fontColor=#333333;" parent="6PBwBM9vEKT9sHQ2U_Us-1" vertex="1">
          <mxGeometry width="680" height="150" as="geometry" />
        </mxCell>
        <mxCell id="Lm_wXHb1BFs4mjGN_8Cl-15" value="Core BS (Send Event)" style="strokeColor=#666666;shadow=1;strokeWidth=2;rounded=1;absoluteArcSize=1;arcSize=2;fillColor=#f5f5f5;fontColor=#333333;spacingTop=10;spacingLeft=28;dropTarget=0;" parent="6PBwBM9vEKT9sHQ2U_Us-1" vertex="1">
          <mxGeometry x="14.879999999999995" y="60" width="160" height="40" as="geometry" />
        </mxCell>
        <mxCell id="Lm_wXHb1BFs4mjGN_8Cl-16" value="Cloud Run" style="editableCssRules=.*;html=1;fontColor=#999999;shape=image;verticalLabelPosition=middle;verticalAlign=top;labelPosition=right;align=left;spacingLeft=5;part=1;points=[];imageAspect=0;image=data:image/svg+xml,PHN2ZyB4bWxucz0iaHR0cDovL3d3dy53My5vcmcvMjAwMC9zdmciIHhtbG5zOnY9Imh0dHBzOi8vdmVjdGEuaW8vbmFubyIgd2lkdGg9IjM2NS40NjQ5OTY3NzA0MjQ5MyIgaGVpZ2h0PSIzNzkuMjIyOTk0NDYzNTc3OTUiIHZpZXdCb3g9IjAgMCA5Ni42OTU5OTkxNDU1MDc4MSAxMDAuMzM1OTk4NTM1MTU2MjUiPiYjeGE7PHN0eWxlIHR5cGU9InRleHQvY3NzIj4mI3hhOwkuc3Qwe2ZpbGw6IzQyODVmNDt9JiN4YTsJLnN0MXtmaWxsOiNhZWNiZmE7fSYjeGE7PC9zdHlsZT4mI3hhOwk8cGF0aCBjbGFzcz0ic3QwIiBkPSJNMjkuNzk0IDEwMC4zMzZMNDYuOTIgNTAuMTY4aDQ5Ljc3NnpNMCA5OS42NzFsMTIuOTc2LTQ5LjUwMkgyOS4yMkwxNi44OTcgOTIuMDU0eiIvPiYjeGE7CTxwYXRoIGNsYXNzPSJzdDEiIGQ9Ik0yOS43OTQgMEw0Ni45MiA1MC4xNjhoNDkuNzc2ek0wIC42NjZsMTIuOTc2IDQ5LjUwMkgyOS4yMkwxNi44OTcgOC4yODN6Ii8+JiN4YTs8L3N2Zz4=;spacingTop=-7;spacing=0;connectable=0;allowArrows=0;" parent="Lm_wXHb1BFs4mjGN_8Cl-15" vertex="1">
          <mxGeometry width="30" height="30" relative="1" as="geometry">
            <mxPoint x="5" y="5" as="offset" />
          </mxGeometry>
        </mxCell>
        <mxCell id="Lm_wXHb1BFs4mjGN_8Cl-17" value="BS" style="text;html=1;align=right;verticalAlign=top;whiteSpace=wrap;rounded=0;spacing=4;spacingTop=-6;fontColor=#999999;connectable=0;allowArrows=0;" parent="Lm_wXHb1BFs4mjGN_8Cl-15" vertex="1">
          <mxGeometry x="138" width="22" height="15" as="geometry" />
        </mxCell>
        <mxCell id="Lm_wXHb1BFs4mjGN_8Cl-18" value="PCM" style="strokeWidth=2;html=1;shape=stencil(zVbBcsIgEP0ajulgqGM9dqK9tZcePK8RlREhA1Tt35eEZDQmcXDrTHtj3w7v7bIPBsIyu4WCk5Qq2HPCZiRNZ8Lw3HloBg587FfbkElpCI8hfKlDsEW5ocIOYAQsJQ8Z64ze8aNYuZpBqC03wpVZNif0lZSUlLAs10p5EqGVbWUu8p4MhCoLOwUy+kTHQee7BkJUeIk9d9y00HODH4uAkPTtDi2cFEZp+oySmqO0pm2tp3QcK/d+v97oSixS6zGdTSLVPjGddaY2ihX7vRdjpTBKFCeFumH02h7RE1tgJobz4mM6i75lQ52xzCNDjybLlpDvNkZ/qVVvlQWUD3In0aT3+sDP5fc+fP39NwRSqAuCCYIBTO4Xpl2CaVxYU5wSOAmbGO2gPIQWvQSz4YmnSdYSNi332iPnRRfurxbTMIbh7xpGTCeX2vIbt8DjHYtV6IAvWbbWht8w7FpIGT4TN1TvcvV/NyUlaFP2n3+TGzzGaltnDhUaPokV8AM=);whiteSpace=wrap;fillColor=#f5f5f5;container=0;collapsible=0;recursiveResize=1;dropTarget=1;spacingRight=24;shadow=1;spacingTop=10;spacingLeft=28;align=center;strokeColor=#666666;fontColor=#333333;" parent="6PBwBM9vEKT9sHQ2U_Us-1" vertex="1">
          <mxGeometry x="220" y="59.999999999999886" width="160" height="40" as="geometry" />
        </mxCell>
        <mxCell id="Lm_wXHb1BFs4mjGN_8Cl-19" value="Pub/Sub" style="editableCssRules=.*;html=1;fontColor=#999999;shape=image;verticalLabelPosition=middle;verticalAlign=top;labelPosition=right;align=left;spacingLeft=5;part=1;points=[];imageAspect=0;image=data:image/svg+xml,PHN2ZyB4bWxucz0iaHR0cDovL3d3dy53My5vcmcvMjAwMC9zdmciIHhtbG5zOnY9Imh0dHBzOi8vdmVjdGEuaW8vbmFubyIgd2lkdGg9IjE4LjMxOTk5OTY5NDgyNDIyIiBoZWlnaHQ9IjIwLjAwMDAwMTkwNzM0ODYzMyIgdmlld0JveD0iMCAwIDE4LjMxOTk5OTY5NDgyNDIyIDIwLjAwMDAwMTkwNzM0ODYzMyI+JiN4YTsJPHN0eWxlIHR5cGU9InRleHQvY3NzIj4mI3hhOwkuc3Qwe2ZpbGw6IzY2OWRmNjt9JiN4YTsJLnN0MXtmaWxsOiM0Mjg1ZjQ7fSYjeGE7CS5zdDJ7ZmlsbDojYWVjYmZhO30mI3hhOwk8L3N0eWxlPiYjeGE7CTxkZWZzPiYjeGE7CQk8ZmlsdGVyIGlkPSJBIiB4PSI0LjY0IiB5PSI0LjE5IiB3aWR0aD0iMTQuNzMiIGhlaWdodD0iMTIuNzYiIGZpbHRlclVuaXRzPSJ1c2VyU3BhY2VPblVzZSIgY29sb3ItaW50ZXJwb2xhdGlvbi1maWx0ZXJzPSJzUkdCIj4mI3hhOwkJCTxmZUZsb29kIGZsb29kLWNvbG9yPSIjZmZmIi8+JiN4YTsJCQk8ZmVCbGVuZCBpbj0iU291cmNlR3JhcGhpYyIvPiYjeGE7CQk8L2ZpbHRlcj4mI3hhOwkJPG1hc2sgaWQ9IkIiIHg9IjQuNjQiIHk9IjQuMTkiIHdpZHRoPSIxNC43MyIgaGVpZ2h0PSIxMi43NiIgbWFza1VuaXRzPSJ1c2VyU3BhY2VPblVzZSI+JiN4YTsJCQk8Y2lyY2xlIGN4PSIxMiIgY3k9IjEyLjIzIiByPSIzLjU4IiBmaWx0ZXI9InVybCgjQSkiLz4mI3hhOwkJPC9tYXNrPiYjeGE7CTwvZGVmcz4mI3hhOwk8ZyBjbGFzcz0ic3QwIj4mI3hhOwkJPGNpcmNsZSBjeD0iMTYuMTMiIGN5PSI2LjIxIiByPSIxLjcyIi8+JiN4YTsJCTxjaXJjbGUgY3g9IjIuMTkiIGN5PSI2LjIxIiByPSIxLjcyIi8+JiN4YTsJCTxjaXJjbGUgY3g9IjkuMTYiIGN5PSIxOC4yOCIgcj0iMS43MiIvPiYjeGE7CTwvZz4mI3hhOwk8ZyBtYXNrPSJ1cmwoI0IpIiB0cmFuc2Zvcm09InRyYW5zbGF0ZSgtMi44NCAtMikiPiYjeGE7CQk8cGF0aCB0cmFuc2Zvcm09Im1hdHJpeCguNSAtLjg3IC44NyAuNSAtNC41OSAyMC41MykiIGQ9Ik0xNC42OSAxMC4yMmgxLjU5djguMDRoLTEuNTl6IiBjbGFzcz0ic3QxIi8+JiN4YTsJCTxwYXRoIHRyYW5zZm9ybT0icm90YXRlKDMzMCA4LjUyMyAxNC4yNDQpIiBkPSJNNC40OSAxMy40NWg4LjA0djEuNTlINC40OXoiIGNsYXNzPSJzdDEiLz4mI3hhOwkJPHBhdGggZD0iTTExLjIgNC4xOWgxLjU5djguMDRIMTEuMnoiIGNsYXNzPSJzdDEiLz4mI3hhOwk8L2c+JiN4YTsJPGcgY2xhc3M9InN0MiI+JiN4YTsJCTxjaXJjbGUgY3g9IjkuMTYiIGN5PSIxMC4yMyIgcj0iMi43OCIvPiYjeGE7CQk8Y2lyY2xlIGN4PSIyLjE5IiBjeT0iMTQuMjUiIHI9IjIuMTkiLz4mI3hhOwkJPGNpcmNsZSBjeD0iMTYuMTMiIGN5PSIxNC4yNSIgcj0iMi4xOSIvPiYjeGE7CQk8Y2lyY2xlIGN4PSI5LjE2IiBjeT0iMi4xOSIgcj0iMi4xOSIvPiYjeGE7CTwvZz4mI3hhOzwvc3ZnPg==;spacingTop=-7;spacing=0;resizeWidth=0;resizable=0;perimeterSpacing=0;connectable=0;allowArrows=0;" parent="Lm_wXHb1BFs4mjGN_8Cl-18" vertex="1">
          <mxGeometry x="5" y="5" width="27" height="30" as="geometry" />
        </mxCell>
        <mxCell id="Lm_wXHb1BFs4mjGN_8Cl-20" value="PCM consumer" style="strokeColor=#666666;shadow=1;strokeWidth=2;rounded=1;absoluteArcSize=1;arcSize=2;fillColor=#f5f5f5;fontColor=#333333;spacingTop=10;spacingLeft=28;dropTarget=0;" parent="6PBwBM9vEKT9sHQ2U_Us-1" vertex="1">
          <mxGeometry x="420" y="60" width="160" height="40" as="geometry" />
        </mxCell>
        <mxCell id="Lm_wXHb1BFs4mjGN_8Cl-21" value="Cloud Run" style="editableCssRules=.*;html=1;fontColor=#999999;shape=image;verticalLabelPosition=middle;verticalAlign=top;labelPosition=right;align=left;spacingLeft=5;part=1;points=[];imageAspect=0;image=data:image/svg+xml,PHN2ZyB4bWxucz0iaHR0cDovL3d3dy53My5vcmcvMjAwMC9zdmciIHhtbG5zOnY9Imh0dHBzOi8vdmVjdGEuaW8vbmFubyIgd2lkdGg9IjM2NS40NjQ5OTY3NzA0MjQ5MyIgaGVpZ2h0PSIzNzkuMjIyOTk0NDYzNTc3OTUiIHZpZXdCb3g9IjAgMCA5Ni42OTU5OTkxNDU1MDc4MSAxMDAuMzM1OTk4NTM1MTU2MjUiPiYjeGE7PHN0eWxlIHR5cGU9InRleHQvY3NzIj4mI3hhOwkuc3Qwe2ZpbGw6IzQyODVmNDt9JiN4YTsJLnN0MXtmaWxsOiNhZWNiZmE7fSYjeGE7PC9zdHlsZT4mI3hhOwk8cGF0aCBjbGFzcz0ic3QwIiBkPSJNMjkuNzk0IDEwMC4zMzZMNDYuOTIgNTAuMTY4aDQ5Ljc3NnpNMCA5OS42NzFsMTIuOTc2LTQ5LjUwMkgyOS4yMkwxNi44OTcgOTIuMDU0eiIvPiYjeGE7CTxwYXRoIGNsYXNzPSJzdDEiIGQ9Ik0yOS43OTQgMEw0Ni45MiA1MC4xNjhoNDkuNzc2ek0wIC42NjZsMTIuOTc2IDQ5LjUwMkgyOS4yMkwxNi44OTcgOC4yODN6Ii8+JiN4YTs8L3N2Zz4=;spacingTop=-7;spacing=0;connectable=0;allowArrows=0;" parent="Lm_wXHb1BFs4mjGN_8Cl-20" vertex="1">
          <mxGeometry width="30" height="30" relative="1" as="geometry">
            <mxPoint x="5" y="5" as="offset" />
          </mxGeometry>
        </mxCell>
        <mxCell id="Lm_wXHb1BFs4mjGN_8Cl-22" value="BS" style="text;html=1;align=right;verticalAlign=top;whiteSpace=wrap;rounded=0;spacing=4;spacingTop=-6;fontColor=#999999;connectable=0;allowArrows=0;" parent="Lm_wXHb1BFs4mjGN_8Cl-20" vertex="1">
          <mxGeometry x="138" width="22" height="15" as="geometry" />
        </mxCell>
        <mxCell id="Lm_wXHb1BFs4mjGN_8Cl-23" style="edgeStyle=orthogonalEdgeStyle;rounded=0;orthogonalLoop=1;jettySize=auto;html=1;" parent="6PBwBM9vEKT9sHQ2U_Us-1" source="Lm_wXHb1BFs4mjGN_8Cl-15" target="Lm_wXHb1BFs4mjGN_8Cl-18" edge="1">
          <mxGeometry relative="1" as="geometry" />
        </mxCell>
        <mxCell id="Lm_wXHb1BFs4mjGN_8Cl-24" style="edgeStyle=orthogonalEdgeStyle;rounded=0;orthogonalLoop=1;jettySize=auto;html=1;entryX=0;entryY=0.5;entryDx=0;entryDy=0;" parent="6PBwBM9vEKT9sHQ2U_Us-1" source="Lm_wXHb1BFs4mjGN_8Cl-18" target="Lm_wXHb1BFs4mjGN_8Cl-20" edge="1">
          <mxGeometry relative="1" as="geometry" />
        </mxCell>
        <mxCell id="Lm_wXHb1BFs4mjGN_8Cl-2" value="" style="shape=image;aspect=fixed;image=data:image/svg+xml,PHN2ZyBoZWlnaHQ9IjIwNiIgcHJlc2VydmVBc3BlY3RSYXRpbz0ieE1pZFlNaWQiIHZpZXdCb3g9IjAgMCAyNTYgMjA2IiB3aWR0aD0iMjU2IiB4bWxucz0iaHR0cDovL3d3dy53My5vcmcvMjAwMC9zdmciPjxwYXRoIGQ9Im0xNzAuMjUxNyA1Ni44MTg2IDIyLjI1My0yMi4yNTMgMS40ODMtOS4zN2MtNDAuNTUxLTM2Ljg3My0xMDUuMDEyLTMyLjY5Mi0xNDEuNTY3IDguNzI0LTEwLjE1NCAxMS41MDMtMTcuNjg3IDI1Ljg0NC0yMS43MDQgNDAuNjUzbDcuOTctMS4xMjMgNDQuNTA1LTcuMzM5IDMuNDM2LTMuNTE0YzE5Ljc5Ny0yMS43NDIgNTMuMjctMjQuNjY3IDc2LjEyOC02LjE2OHoiIGZpbGw9IiNlYTQzMzUiLz48cGF0aCBkPSJtMjI0LjIwNDggNzMuOTE4MmMtNS4xMTUtMTguODM2LTE1LjYxNi0zNS43NjktMzAuMjE3LTQ4LjcyMmwtMzEuMjMyIDMxLjIzMmMxMy4xODggMTAuNzc2IDIwLjcwMSAyNy4wMSAyMC4zNzkgNDQuMDM3djUuNTQ0YzE1LjM1MSAwIDI3Ljc5NyAxMi40NDUgMjcuNzk3IDI3Ljc5NiAwIDE1LjM1Mi0xMi40NDYgMjcuNDg1LTI3Ljc5NyAyNy40ODVoLTU1LjY3MWwtNS40NjYgNS45MzR2MzMuMzRsNS40NjYgNS4yMzFoNTUuNjcxYzM5LjkzLjMxMSA3Mi41NTItMzEuNDk0IDcyLjg2My03MS40MjQuMTg4LTI0LjIwMy0xMS43NDUtNDYuODkzLTMxLjc5My02MC40NTMiIGZpbGw9IiM0Mjg1ZjQiLz48cGF0aCBkPSJtNzEuODcwNCAyMDUuNzk1N2g1NS41OTN2LTQ0LjUwNmgtNTUuNTkzYy0zLjk2MS0uMDAxLTcuNzk3LS44NTItMTEuMzk5LTIuNDk4bC03Ljg4NyAyLjQyLTIyLjQwOSAyMi4yNTMtMS45NTIgNy41NzRjMTIuNTY3IDkuNDg5IDI3LjkgMTQuODI1IDQzLjY0NyAxNC43NTciIGZpbGw9IiMzNGE4NTMiLz48cGF0aCBkPSJtNzEuODcwNCA2MS40MjU1Yy0zOS45MzEuMjM4LTcyLjEwNyAzMi44MDItNzEuODY5IDcyLjczMi4xMzMgMjIuMjk4IDEwLjU0NyA0My4yODggMjguMjIyIDU2Ljg4MWwzMi4yNDgtMzIuMjQ3Yy0xMy45OTEtNi4zMjEtMjAuMjA4LTIyLjc4Ni0xMy44ODctMzYuNzc2IDYuMzItMTMuOTkgMjIuNzg2LTIwLjIwNyAzNi43NzUtMTMuODg3IDYuMTY1IDIuNzg1IDExLjEwMiA3LjcyMyAxMy44ODcgMTMuODg3bDMyLjI0OC0zMi4yNDdjLTEzLjcyMS0xNy45MzctMzUuMDQxLTI4LjQyNC01Ny42MjQtMjguMzQzIiBmaWxsPSIjZmJiYzA1Ii8+PC9zdmc+;movable=0;" parent="Lm_wXHb1BFs4mjGN_8Cl-1" vertex="1">
          <mxGeometry x="5" y="5" width="19.88" height="16" as="geometry" />
        </mxCell>
        <mxCell id="6PBwBM9vEKT9sHQ2U_Us-19" style="edgeStyle=orthogonalEdgeStyle;rounded=0;orthogonalLoop=1;jettySize=auto;html=1;entryX=0.75;entryY=0;entryDx=0;entryDy=0;fillColor=#d5e8d4;strokeColor=#82b366;strokeWidth=2;" edge="1" parent="Lm_wXHb1BFs4mjGN_8Cl-1" target="Lm_wXHb1BFs4mjGN_8Cl-15">
          <mxGeometry relative="1" as="geometry">
            <mxPoint x="220" y="140" as="sourcePoint" />
            <Array as="points">
              <mxPoint x="370" y="140" />
              <mxPoint x="370" y="210" />
              <mxPoint x="235" y="210" />
            </Array>
          </mxGeometry>
        </mxCell>
        <mxCell id="6PBwBM9vEKT9sHQ2U_Us-21" style="edgeStyle=orthogonalEdgeStyle;rounded=0;orthogonalLoop=1;jettySize=auto;html=1;exitX=1;exitY=0.25;exitDx=0;exitDy=0;entryX=1;entryY=0.5;entryDx=0;entryDy=0;fillColor=#d5e8d4;strokeColor=#82b366;strokeWidth=2;" edge="1" parent="Lm_wXHb1BFs4mjGN_8Cl-1" source="Lm_wXHb1BFs4mjGN_8Cl-9" target="6PBwBM9vEKT9sHQ2U_Us-9">
          <mxGeometry relative="1" as="geometry">
            <Array as="points">
              <mxPoint x="870" y="120" />
              <mxPoint x="870" y="460" />
            </Array>
          </mxGeometry>
        </mxCell>
        <mxCell id="6PBwBM9vEKT9sHQ2U_Us-23" style="edgeStyle=orthogonalEdgeStyle;rounded=0;orthogonalLoop=1;jettySize=auto;html=1;exitX=1;exitY=0.25;exitDx=0;exitDy=0;entryX=0.5;entryY=1;entryDx=0;entryDy=0;fillColor=#d5e8d4;strokeColor=#82b366;strokeWidth=2;" edge="1" parent="Lm_wXHb1BFs4mjGN_8Cl-1" source="Lm_wXHb1BFs4mjGN_8Cl-9" target="6PBwBM9vEKT9sHQ2U_Us-4">
          <mxGeometry relative="1" as="geometry">
            <Array as="points">
              <mxPoint x="870" y="120" />
              <mxPoint x="870" y="580" />
              <mxPoint x="190" y="580" />
            </Array>
          </mxGeometry>
        </mxCell>
        <mxCell id="6PBwBM9vEKT9sHQ2U_Us-27" value="Loyalty Health" style="edgeLabel;html=1;align=center;verticalAlign=middle;resizable=0;points=[];" vertex="1" connectable="0" parent="6PBwBM9vEKT9sHQ2U_Us-23">
          <mxGeometry x="-0.8291" y="3" relative="1" as="geometry">
            <mxPoint as="offset" />
          </mxGeometry>
        </mxCell>
        <mxCell id="Lm_wXHb1BFs4mjGN_8Cl-9" value="mkt-self-service-bff" style="strokeColor=#666666;shadow=1;strokeWidth=2;rounded=1;absoluteArcSize=1;arcSize=2;fillColor=#f5f5f5;fontColor=#333333;spacingTop=10;spacingLeft=28;dropTarget=0;" parent="Lm_wXHb1BFs4mjGN_8Cl-1" vertex="1">
          <mxGeometry x="60" y="110.00000000000011" width="160" height="40" as="geometry" />
        </mxCell>
        <mxCell id="Lm_wXHb1BFs4mjGN_8Cl-10" value="Cloud Run" style="editableCssRules=.*;html=1;fontColor=#999999;shape=image;verticalLabelPosition=middle;verticalAlign=top;labelPosition=right;align=left;spacingLeft=5;part=1;points=[];imageAspect=0;image=data:image/svg+xml,PHN2ZyB4bWxucz0iaHR0cDovL3d3dy53My5vcmcvMjAwMC9zdmciIHhtbG5zOnY9Imh0dHBzOi8vdmVjdGEuaW8vbmFubyIgd2lkdGg9IjM2NS40NjQ5OTY3NzA0MjQ5MyIgaGVpZ2h0PSIzNzkuMjIyOTk0NDYzNTc3OTUiIHZpZXdCb3g9IjAgMCA5Ni42OTU5OTkxNDU1MDc4MSAxMDAuMzM1OTk4NTM1MTU2MjUiPiYjeGE7PHN0eWxlIHR5cGU9InRleHQvY3NzIj4mI3hhOwkuc3Qwe2ZpbGw6IzQyODVmNDt9JiN4YTsJLnN0MXtmaWxsOiNhZWNiZmE7fSYjeGE7PC9zdHlsZT4mI3hhOwk8cGF0aCBjbGFzcz0ic3QwIiBkPSJNMjkuNzk0IDEwMC4zMzZMNDYuOTIgNTAuMTY4aDQ5Ljc3NnpNMCA5OS42NzFsMTIuOTc2LTQ5LjUwMkgyOS4yMkwxNi44OTcgOTIuMDU0eiIvPiYjeGE7CTxwYXRoIGNsYXNzPSJzdDEiIGQ9Ik0yOS43OTQgMEw0Ni45MiA1MC4xNjhoNDkuNzc2ek0wIC42NjZsMTIuOTc2IDQ5LjUwMkgyOS4yMkwxNi44OTcgOC4yODN6Ii8+JiN4YTs8L3N2Zz4=;spacingTop=-7;spacing=0;connectable=0;allowArrows=0;" parent="Lm_wXHb1BFs4mjGN_8Cl-9" vertex="1">
          <mxGeometry width="30" height="30" relative="1" as="geometry">
            <mxPoint x="5" y="5" as="offset" />
          </mxGeometry>
        </mxCell>
        <mxCell id="Lm_wXHb1BFs4mjGN_8Cl-11" value="BS" style="text;html=1;align=right;verticalAlign=top;whiteSpace=wrap;rounded=0;spacing=4;spacingTop=-6;fontColor=#999999;connectable=0;allowArrows=0;" parent="Lm_wXHb1BFs4mjGN_8Cl-9" vertex="1">
          <mxGeometry x="138" width="22" height="15" as="geometry" />
        </mxCell>
        <mxCell id="ty74toPA0M5ftm75UnRP-2" style="edgeStyle=orthogonalEdgeStyle;rounded=0;orthogonalLoop=1;jettySize=auto;html=1;fillColor=#e1d5e7;strokeColor=#9673a6;strokeWidth=2;dashed=1;" edge="1" parent="Lm_wXHb1BFs4mjGN_8Cl-1" source="Lm_wXHb1BFs4mjGN_8Cl-12" target="Lm_wXHb1BFs4mjGN_8Cl-9">
          <mxGeometry relative="1" as="geometry" />
        </mxCell>
        <mxCell id="Lm_wXHb1BFs4mjGN_8Cl-12" value="mkt-self-service-ui" style="strokeColor=#666666;shadow=1;strokeWidth=2;rounded=1;absoluteArcSize=1;arcSize=2;fillColor=#f5f5f5;fontColor=#333333;spacingTop=10;spacingLeft=28;dropTarget=0;" parent="Lm_wXHb1BFs4mjGN_8Cl-1" vertex="1">
          <mxGeometry x="60" y="30.000000000000114" width="160" height="40" as="geometry" />
        </mxCell>
        <mxCell id="Lm_wXHb1BFs4mjGN_8Cl-13" value="Cloud Run" style="editableCssRules=.*;html=1;fontColor=#999999;shape=image;verticalLabelPosition=middle;verticalAlign=top;labelPosition=right;align=left;spacingLeft=5;part=1;points=[];imageAspect=0;image=data:image/svg+xml,PHN2ZyB4bWxucz0iaHR0cDovL3d3dy53My5vcmcvMjAwMC9zdmciIHhtbG5zOnY9Imh0dHBzOi8vdmVjdGEuaW8vbmFubyIgd2lkdGg9IjM2NS40NjQ5OTY3NzA0MjQ5MyIgaGVpZ2h0PSIzNzkuMjIyOTk0NDYzNTc3OTUiIHZpZXdCb3g9IjAgMCA5Ni42OTU5OTkxNDU1MDc4MSAxMDAuMzM1OTk4NTM1MTU2MjUiPiYjeGE7PHN0eWxlIHR5cGU9InRleHQvY3NzIj4mI3hhOwkuc3Qwe2ZpbGw6IzQyODVmNDt9JiN4YTsJLnN0MXtmaWxsOiNhZWNiZmE7fSYjeGE7PC9zdHlsZT4mI3hhOwk8cGF0aCBjbGFzcz0ic3QwIiBkPSJNMjkuNzk0IDEwMC4zMzZMNDYuOTIgNTAuMTY4aDQ5Ljc3NnpNMCA5OS42NzFsMTIuOTc2LTQ5LjUwMkgyOS4yMkwxNi44OTcgOTIuMDU0eiIvPiYjeGE7CTxwYXRoIGNsYXNzPSJzdDEiIGQ9Ik0yOS43OTQgMEw0Ni45MiA1MC4xNjhoNDkuNzc2ek0wIC42NjZsMTIuOTc2IDQ5LjUwMkgyOS4yMkwxNi44OTcgOC4yODN6Ii8+JiN4YTs8L3N2Zz4=;spacingTop=-7;spacing=0;connectable=0;allowArrows=0;" parent="Lm_wXHb1BFs4mjGN_8Cl-12" vertex="1">
          <mxGeometry width="30" height="30" relative="1" as="geometry">
            <mxPoint x="5" y="5" as="offset" />
          </mxGeometry>
        </mxCell>
        <mxCell id="Lm_wXHb1BFs4mjGN_8Cl-14" value="BS" style="text;html=1;align=right;verticalAlign=top;whiteSpace=wrap;rounded=0;spacing=4;spacingTop=-6;fontColor=#999999;connectable=0;allowArrows=0;" parent="Lm_wXHb1BFs4mjGN_8Cl-12" vertex="1">
          <mxGeometry x="138" width="22" height="15" as="geometry" />
        </mxCell>
        <mxCell id="Lm_wXHb1BFs4mjGN_8Cl-29" style="edgeStyle=orthogonalEdgeStyle;rounded=0;orthogonalLoop=1;jettySize=auto;html=1;entryX=0.631;entryY=0.075;entryDx=0;entryDy=0;entryPerimeter=0;fillColor=#d5e8d4;strokeColor=#82b366;strokeWidth=2;exitX=1;exitY=0.75;exitDx=0;exitDy=0;" parent="Lm_wXHb1BFs4mjGN_8Cl-1" source="Lm_wXHb1BFs4mjGN_8Cl-9" target="Lm_wXHb1BFs4mjGN_8Cl-20" edge="1">
          <mxGeometry relative="1" as="geometry">
            <mxPoint x="220" y="130" as="sourcePoint" />
          </mxGeometry>
        </mxCell>
        <mxCell id="LZZj4r_N03vtzrgnFsEx-2" value="CoreComm Health" style="edgeLabel;html=1;align=center;verticalAlign=middle;resizable=0;points=[];" vertex="1" connectable="0" parent="Lm_wXHb1BFs4mjGN_8Cl-29">
          <mxGeometry x="-0.764" y="2" relative="1" as="geometry">
            <mxPoint as="offset" />
          </mxGeometry>
        </mxCell>
        <mxCell id="Lm_wXHb1BFs4mjGN_8Cl-6" value="" style="group" parent="1" vertex="1" connectable="0">
          <mxGeometry x="10" y="368.0000000000001" width="60" height="79.99999999999989" as="geometry" />
        </mxCell>
        <mxCell id="Lm_wXHb1BFs4mjGN_8Cl-4" value="" style="shape=actor;whiteSpace=wrap;html=1;rounded=0;shadow=1;strokeColor=#666666;strokeWidth=2;fillColor=#f5f5f5;fontFamily=Helvetica;fontSize=12;align=center;fontColor=#333333;" parent="Lm_wXHb1BFs4mjGN_8Cl-6" vertex="1">
          <mxGeometry x="10" width="40" height="50" as="geometry" />
        </mxCell>
        <mxCell id="Lm_wXHb1BFs4mjGN_8Cl-5" value="Postman" style="text;html=1;whiteSpace=wrap;strokeColor=none;fillColor=none;align=center;verticalAlign=middle;rounded=0;" parent="Lm_wXHb1BFs4mjGN_8Cl-6" vertex="1">
          <mxGeometry y="49.999999999999886" width="60" height="30" as="geometry" />
        </mxCell>
        <mxCell id="Lm_wXHb1BFs4mjGN_8Cl-25" style="edgeStyle=orthogonalEdgeStyle;rounded=0;orthogonalLoop=1;jettySize=auto;html=1;entryX=0;entryY=0.5;entryDx=0;entryDy=0;fillColor=#d5e8d4;strokeColor=#82b366;strokeWidth=2;" parent="1" source="Lm_wXHb1BFs4mjGN_8Cl-7" target="Lm_wXHb1BFs4mjGN_8Cl-9" edge="1">
          <mxGeometry relative="1" as="geometry" />
        </mxCell>
        <mxCell id="LZZj4r_N03vtzrgnFsEx-1" value="Health" style="edgeLabel;html=1;align=center;verticalAlign=middle;resizable=0;points=[];" vertex="1" connectable="0" parent="Lm_wXHb1BFs4mjGN_8Cl-25">
          <mxGeometry x="0.3313" relative="1" as="geometry">
            <mxPoint as="offset" />
          </mxGeometry>
        </mxCell>
        <mxCell id="Lm_wXHb1BFs4mjGN_8Cl-26" style="edgeStyle=orthogonalEdgeStyle;rounded=0;orthogonalLoop=1;jettySize=auto;html=1;exitX=1;exitY=0.75;exitDx=0;exitDy=0;entryX=0;entryY=0.5;entryDx=0;entryDy=0;strokeWidth=2;fillColor=#ffe6cc;strokeColor=#d79b00;" parent="1" source="Lm_wXHb1BFs4mjGN_8Cl-7" target="Lm_wXHb1BFs4mjGN_8Cl-15" edge="1">
          <mxGeometry relative="1" as="geometry">
            <Array as="points">
              <mxPoint x="310" y="404" />
              <mxPoint x="310" y="510" />
            </Array>
          </mxGeometry>
        </mxCell>
        <mxCell id="Lm_wXHb1BFs4mjGN_8Cl-27" style="edgeStyle=orthogonalEdgeStyle;rounded=0;orthogonalLoop=1;jettySize=auto;html=1;fillColor=#f8cecc;strokeColor=#b85450;strokeWidth=2;" parent="1" source="Lm_wXHb1BFs4mjGN_8Cl-7" target="Lm_wXHb1BFs4mjGN_8Cl-20" edge="1">
          <mxGeometry relative="1" as="geometry">
            <Array as="points">
              <mxPoint x="153" y="560" />
              <mxPoint x="930" y="560" />
            </Array>
          </mxGeometry>
        </mxCell>
        <mxCell id="ty74toPA0M5ftm75UnRP-1" style="edgeStyle=orthogonalEdgeStyle;rounded=0;orthogonalLoop=1;jettySize=auto;html=1;strokeWidth=2;dashed=1;fillColor=#e1d5e7;strokeColor=#9673a6;entryX=0;entryY=0.5;entryDx=0;entryDy=0;" edge="1" parent="1" source="Lm_wXHb1BFs4mjGN_8Cl-7" target="Lm_wXHb1BFs4mjGN_8Cl-12">
          <mxGeometry relative="1" as="geometry">
            <mxPoint x="240" y="290" as="targetPoint" />
            <Array as="points">
              <mxPoint x="153" y="290" />
            </Array>
          </mxGeometry>
        </mxCell>
        <mxCell id="Lm_wXHb1BFs4mjGN_8Cl-7" value="" style="shape=image;verticalLabelPosition=bottom;labelBackgroundColor=default;verticalAlign=top;aspect=fixed;imageAspect=0;image=data:image/svg+xml,PD94bWwgdmVyc2lvbj0iMS4wIiBlbmNvZGluZz0idXRmLTgiPz4NCjwhLS0gR2VuZXJhdG9yOiBBZG9iZSBJbGx1c3RyYXRvciAxNi4wLjAsIFNWRyBFeHBvcnQgUGx1Zy1JbiAuIFNWRyBWZXJzaW9uOiA2LjAwIEJ1aWxkIDApICAtLT4NCjwhRE9DVFlQRSBzdmcgUFVCTElDICItLy9XM0MvL0RURCBTVkcgMS4xLy9FTiIgImh0dHA6Ly93d3cudzMub3JnL0dyYXBoaWNzL1NWRy8xLjEvRFREL3N2ZzExLmR0ZCI+DQo8c3ZnIHZlcnNpb249IjEuMSIgaWQ9IkxheWVyXzEiIHhtbG5zPSJodHRwOi8vd3d3LnczLm9yZy8yMDAwL3N2ZyIgeG1sbnM6eGxpbms9Imh0dHA6Ly93d3cudzMub3JnLzE5OTkveGxpbmsiIHg9IjBweCIgeT0iMHB4Ig0KCSB3aWR0aD0iMTEyNXB4IiBoZWlnaHQ9IjExMjVweCIgdmlld0JveD0iMCAwIDExMjUgMTEyNSIgZW5hYmxlLWJhY2tncm91bmQ9Im5ldyAwIDAgMTEyNSAxMTI1IiB4bWw6c3BhY2U9InByZXNlcnZlIj4NCjxnIGlkPSJMYXllcl8yXzFfIj4NCgk8Zz4NCgkJPHJlY3QgeD0iMy4wNjIiIHk9IjIuMDYyIiBmaWxsPSIjQkMxRjI3IiB3aWR0aD0iMTExOS44NDgiIGhlaWdodD0iMTExOS44NDgiLz4NCgkJPHBhdGggZmlsbD0iI0ZGRkZGRiIgZD0iTTMxNi4wMTYsNDU5LjQ1OGMtMTkuNzczLTExLjgyNS0zOC4wNDEtMTguMjcyLTk4LjAxLTE4LjI3MmgtOTIuODU2djM3My41N2g3MS4xNDZWNjc3LjE5MWgzOC45MDQNCgkJCWMzOS4xMjEsMCw1NC4zNzktNC4zLDcwLjUwMy0xMi40NjhjMzguNDc0LTE5LjM0Nyw2MC44MjctNTkuMTA3LDYwLjgyNy0xMDguNTQxQzM2Ni43NDUsNTEzLjE5MSwzNDguOTA0LDQ3OC44MDIsMzE2LjAxNiw0NTkuNDU4DQoJCQl6IE0yODAuNTUzLDU5Ni41ODZjLTkuNjc0LDE1LjY5Ny0xOC4yNzMsMTkuMzQ3LTQ3LjI4OCwxOS4zNDdoLTM2Ljk3VjUwMi4wMTdoNDUuMTM3YzI5Ljg3OSwwLDQ3LjcxOCwyMS4wNjQsNDcuNzE4LDU1Ljg4Mw0KCQkJQzI4OS4xNDksNTc1LjUyNCwyODYuNTcxLDU4Ni40ODUsMjgwLjU1Myw1OTYuNTg2eiBNMTI1LjE0OSw4NTAuMDA2aDE2LjMzN3YxNTEuNTMyaC0xNi4zMzdWODUwLjAwNnogTTMxMC44NTUsODg4LjY5NA0KCQkJYy0xMi4yNDksMC0yMi4zNTIsNC45NDQtMzAuNTE5LDE1LjI2MWMtOC41OTcsMTAuOTYxLTEyLjI0OSwyMy4wMDQtMTIuMjQ5LDQxLjQ4N2MwLDM2LjUzOCwxNi45NzgsNTguNDYsNDUuMTM3LDU4LjQ2DQoJCQljMTMuMTA5LDAsMjUuMzU4LTQuOTQ0LDM0LjM5LTEzLjc1NWwtNi4yMzItMTAuOTYxYy03LjA5NCw3LjA5MS0xNS4wNDgsMTAuMzE4LTI0LjkzNSwxMC4zMTgNCgkJCWMtMTAuMzE4LDAtMTkuNTYzLTMuODcyLTI1LjM2NS0xMy41NDZjLTMuNDM3LTUuODAxLTQuNzI3LTEzLjc1Mi00LjcyNy0yNC4wN3YtMi41NzhoNjMuNDA3di0yLjM2Nw0KCQkJYy0wLjQyNy0yNi4yMTktMi43OTEtMzYuNzUxLTExLjYwNC00Ni40MjVDMzMxLjQ5Miw4OTIuOTk0LDMyMi4wMzcsODg4LjY5NCwzMTAuODU1LDg4OC42OTR6IE0yODYuNTcxLDkzNi40MTQNCgkJCWMwLjg1OC0yMi43ODUsOS4wMjgtMzQuMTgxLDIzLjQyNi0zNC4xODFjNy43NCwwLDE0LjgzMSwzLjY1NywxOC4yNzUsOS42ODFjMy4wMDQsNS4zNjYsNC41MSwxMi42NzYsNC43MjYsMjQuNUgyODYuNTcxeg0KCQkJIE00NDQuMzM5LDkwNS4yNDhjMS43MjIsMy44NjUsMi4zNjEsOC4zODEsMi4zNjEsMTIuODk2djgzLjM5NWgtMTYuMTE5VjkyNy4xN2MwLTExLjYwNi0wLjg2My0xNC42MTgtMy42NTQtMTguMjcxDQoJCQljLTIuMTUzLTIuNzkzLTYuNDQ4LTQuNzI5LTExLjE3NS00LjcyOWMtOC4xNzIsMC0yMC44NTMsNy4wOTMtMjguMTU5LDE1LjQ3NHY4MS44OTRoLTE1LjQ3OXYtODQuOQ0KCQkJYzAtMTUuNjg5LTMuODYzLTIzLjIxNS0zLjg2My0yMy4yMTVsMTUuNDcyLTQuNzI5YzAsMCwzLjY1Miw4LjE3MywzLjY1MiwxNy4xOTZjMTAuNTM0LTExLjM5MywyMS4yNzktMTYuOTgsMzIuMDI5LTE2Ljk4DQoJCQlDNDMwLjM2OCw4ODkuMTI5LDQ0MC4yNTIsODk1LjU3NCw0NDQuMzM5LDkwNS4yNDh6IE0zODcuNTkzLDQ2My43NTVjMC0yNC43MTYsMTkuMzQ3LTQ0LjQ4OSw0Mi41NTctNDQuNDg5DQoJCQljMjIuNzg2LDAsNDEuMDU0LDE5Ljk4Niw0MS4wNTQsNDQuNDg5YzAsMjQuNzIxLTE4LjkxNSw0NC43MS00Mi4xMjUsNDQuNzFDNDA2LjUwOCw1MDguNDY1LDM4Ny41OTMsNDg4LjQ3NiwzODcuNTkzLDQ2My43NTV6DQoJCQkgTTM5NS4zMzEsNTQ0LjM2bDY3LjkyMy0xMS4zOTZWODE0LjU0aC02Ny45MjNWNTQ0LjM2eiBNNDkwLjc2Niw4OTEuNzA5aDI2LjIyMmwtNC45NDIsMTMuMTA0aC0yMS45Mjd2NzAuOTM3DQoJCQljMCwxMi4yNDksMy4wMTIsMTYuMzI4LDEzLjExNCwxNi4zMjhjNC41MTEsMCwzLjIyMywwLDYuMjMyLTEuNTAxbDIuMTQ4LDEwLjk2MWMtNS4xNTgsMi43OTktNy4wOTMsMy42NTctMTQuMTg4LDMuNjU3DQoJCQljLTUuMzcxLDAtOS40NTMtMS4wNzktMTMuMzIzLTMuMDFjLTcuMDkxLTMuNjU3LTkuODg3LTEwLjc1LTkuODg3LTIxLjkyNXYtNzUuNDQ3SDQ2MC44OXYtMTMuMTA0aDEzLjMyNXYtNDEuNzAzaDE2LjMzNXY0MS43MDMNCgkJCUg0OTAuNzY2eiBNMjQ3LjY2Nyw4NTAuMDA2aC0xNS45MDZ2MzYuNTM3YzAsNy45NTUsMC4yMTEsMTYuOTgzLDAuMjExLDE2Ljk4M2MtNi4wMTctOC44MTUtMTYuMTE5LTEzLjk2OS0yNy41MTItMTMuOTY5DQoJCQljLTcuMzA3LDAtMTMuMTA3LDEuOTMxLTE5LjU1OCw2Ljg3NWMtMTMuOTcsMTAuMzE2LTIxLjA2MSwyNy41MTUtMjEuMDYxLDUwLjk0YzAsMzUuMDM2LDE1LjA0NSw1NS42NzEsNDEuNDgyLDU1LjY3MQ0KCQkJYzExLjgxOSwwLDE5LjU1OC0zLjY1MSwyNi44NjQtMTIuODk2YzAuMjE2LDUuODA5LDIuMTUzLDExLjE3NSwyLjE1MywxMS4xNzVoMTYuMzMzYy0yLjM2NC02LjQ0NS0zLjAwNy0xNi41NDYtMy4wMDctMzUuNDU5DQoJCQlWODUwLjAwNkwyNDcuNjY3LDg1MC4wMDZ6IE0yMzEuNTQ1LDk3My41OTVjMCwwLTEuOTM2LDQuNzM2LTYuMjMyLDcuOTU5Yy02LjQ0OCw1LjE1OC0xMS4xNzcsNy4wODgtMTkuNTYzLDcuMDg4DQoJCQljLTkuNDU1LDAtMTUuNjg4LTMuNjUxLTIwLjQxNy0xMi44OTJjLTMuMjI1LTYuNDUtNC4wODMtMTUuOTEtNC4wODMtMjguODA3YzAtMTUuNDc0LDEuNzIyLTIzLjQyNiw2LjQ0OC0zMS44MDcNCgkJCWM0LjI5Ny03LjUyNCwxMC45NjEtMTEuMzk1LDE4LjkxNS0xMS4zOTVjMTIuMDM2LDAsMTkuNTU4LDMuNjUxLDI0LjcxNiwxMS4zOTV2NTguNDU4SDIzMS41NDV6IE03MjMuMTE3LDg5MS40ODhsLTM0LjgyMywxMTMuOTINCgkJCWMtNi44OCwyMi4xMzYtMTUuMDQ1LDM2Ljc1OS0zMi44ODYsNDEuMjdsLTQuNzI5LTExLjYwOGM5Ljg4OC0zLjQzOSwxNS4wNDUtOC4xNjMsMTkuNTY1LTIwLjIwNg0KCQkJYy0xLjcyMi04LjU5Ny0yLjU3OC0xMi40NjctMi41NzgtMTIuNDY3Yy0xLjI5Ny03LjA5MS02LjY2Ni0yOC41ODYtMTAuMTAzLTM5LjU0N2wtMjIuMTQ2LTY4Ljc4MWwxNS42OTUtNS44MDNsMjAuODQ4LDcxLjM2MQ0KCQkJYzMuMDA3LDEwLjMxNSw2LjAxNywyNy4yOTgsNi4wMTcsMjcuMjk4aDAuNDNjMCwwLDMuODctMTQuMTg4LDYuMjM0LTIzLjIxN2wxOS45OTItNzIuMjJINzIzLjExN0w3MjMuMTE3LDg5MS40ODh6DQoJCQkgTTczNi44NzIsOTgxLjU1NGMwLTMuODczLTIuMTUxLTUuMzc5LTYuNDUxLTUuMzc5aC02LjQ0NXYxOC4yNzVoMy4yMjh2LTcuOTU0aDEuOTMxbDQuNTE1LDcuNzM4aDMuMjI0bC00LjUxMS03Ljk1Nw0KCQkJQzczNS4xNTUsOTg2LjA2Miw3MzYuODcyLDk4NC41NjEsNzM2Ljg3Miw5ODEuNTU0eiBNNzI3LjQxNyw5ODMuOTEzdi01LjE2aDIuNzkzYzEuNzE3LDAsMy40MzgsMC40MzQsMy40MzgsMi41OA0KCQkJYzAsMi4zNjQtMS43MjIsMi43OTgtMy40MzgsMi43OThoLTIuNzkzVjk4My45MTN6IE03MjkuOTk3LDk2OS4zYy04LjM4MSwwLTE1LjI2MSw3LjMxLTE1LjI2MSwxNi4xMTkNCgkJCWMwLDguODE1LDYuODgsMTYuMTE5LDE1LjI2MSwxNi4xMTlzMTUuMjYxLTcuMzA0LDE1LjI2MS0xNi4xMTlDNzQ1LjA0Miw5NzYuMzg5LDczOC4zNzgsOTY5LjMsNzI5Ljk5Nyw5NjkuM3ogTTcyOS45OTcsOTk4LjMyDQoJCQljLTYuNDUxLDAtMTEuMzk2LTUuMzc5LTExLjM5Ni0xMi45MDFzNS4xNTgtMTIuODk2LDExLjM5Ni0xMi44OTZjNi40NDUsMCwxMS4zODgsNS4zNzQsMTEuMzg4LDEyLjg5Ng0KCQkJUzczNi4yMjcsOTk4LjMyLDcyOS45OTcsOTk4LjMyeiBNODk0LjQyOCw3NDQuNDY2bC0zNi41NDItMC40MjljLTcuMDk0LDAtMTEuMTc1LTIuNzk0LTExLjE3NS02LjQ0Ng0KCQkJYzAtNy41MjIsOS42NjktMTMuOTczLDI2Ljg2NC0yMi41NjljNS4xNTgsMC42NDUsNy4wODksMC42NDUsMTAuMTAzLDAuNjQ1YzU1LjI0MiwwLDk2LjA3NS0zNC4zODksOTYuMDc1LTgxLjY3Nw0KCQkJYzAtMTguMjcxLTUuMTU4LTMyLjI0My0xNS4yNTYtNDUuMTRjNC4wODEsMC40MzUsMTEuMTc3LDEuNTA2LDE3LjgzNiwxLjUwNmMxOC43MDQsMCwzMi44OTEtNi4wMTcsNDcuNzItMjAuNDE4bC0yOC4zNzMtNDUuNzg1DQoJCQljLTE1LjY4OSwxNS4wNDgtMzUuMDMyLDIzLjY0NS01My43MzYsMjMuNjQ1Yy04LjU5NCwwLTE3LjgzOC0yLjE0Ni0zMi4wMjctNi4wMmMtMTguNjk5LTQuNzI3LTMyLjAyMi02Ljg4LTQ2LjY0MS02Ljg4DQoJCQljLTY2LjQxMSwwLTEwOS42MiwzNi41NDEtMTA5LjYyLDkzLjA3NWMwLDQwLjgzOCwxOC4yNyw2NS45ODcsNTUuODksNzYuMjk5Yy00Mi43NzMsMTEuODI5LTQ3LjcxOCwyOC41OTEtNDcuNzE4LDQ2LjIxNg0KCQkJYzAsMTguOTEzLDcuNTIyLDMxLjE3MiwxOS43NzEsMzUuODk2YzEyLjI1MSw1LjM3NCwzMi4wMjcsNy45NTEsNjIuNTQ5LDguNTk3bDI5LjAxNSwwLjY0Mw0KCQkJYzI2Ljg3MiwwLjQzNCw0Ny43Miw4LjE3Miw0Ny43MiwzMi44ODhjMCwxMS4zOTQtNi42NjYsMjEuNDk2LTE2Ljc2OSwyNy45NDZjLTEwLjc0NSw3LjA5MS0yNS4zNjMsOS4wMjYtNDIuNTU1LDkuMDI2DQoJCQljLTMxLjM4NSwwLTQ4Ljc5MS0xMS44MjUtNDguNzkxLTMzLjk2YzAtNy41MjIsMC40MjktMTEuMTc1LDMuMDA5LTE3LjYyNmgtNjIuOTc5Yy0yLjU3OCw1LjM2Ny02LjAxNywxMi44OTYtNi4wMTcsMjcuOTQ0DQoJCQljMCwxOC42OTYsNy4wODgsMzQuODIsMjEuMjc2LDQ4Ljc4OWMyMy40MjksMjMuMjE1LDYxLjQ3NSwyOS42NjUsOTguNDQ3LDI5LjY2NWM0MC42MjQsMCw3OS43NDItOS42NzQsMTAyLjUyNC0zNS40NzENCgkJCWMxNC4xODUtMTYuMTE5LDIwLjg0OS0zMy43NDcsMjAuODQ5LTU2Ljk1NGMwLTI0LjcyNi03LjA5NC00My42MzEtMjIuMzU0LTU4LjY3OUM5NTQuODIzLDc1MS4zNDYsOTMzLjk3Niw3NDQuOSw4OTQuNDI4LDc0NC40NjZ6DQoJCQkgTTgyOC4wMDcsNjI4LjE4N2MwLTI1Ljc5MywxNC44MzQtNDAuODQsNDAuNjI0LTQwLjg0YzI2LjAwOCwwLDQxLjA1MywxNS4wNDcsNDEuMDUzLDQwLjg0YzAsMjUuMzYzLTE0LjYxNSwzOS4xMTgtNDEuNjk1LDM5LjExOA0KCQkJQzg0NC4xMzEsNjY3LjUyMiw4MjguMDA3LDY1Ni4zNDMsODI4LjAwNyw2MjguMTg3eiBNNjMzLjkxNSw1OTUuNTE0Yy0xMy43NiwwLTMxLjM4NSw5LjY3NC00Ny4yODgsMjQuNzIxdjE5NC41MjFoLTY4LjEzNFY2MTUuMjkNCgkJCWMwLTIzLjY0Ni0zLjAxMi00Ni4yMTctOS4wMjgtNjQuNDgxbDYwLjM5Ny0xOC4yNzFjNi4wMTcsMTEuMzkxLDkuNjc0LDIyLjk5Nyw5LjY3NCwzNC4zOQ0KCQkJYzEwLjEwMy03LjUyNSwxOC42OTktMTMuOTc0LDI5Ljg3NC0yMC40MjFjMTMuNzYtNy41MjIsMzEuMzg1LTExLjgyLDQ2LjY0Ni0xMS44MmMyOS4wMTUsMCw1NC4zNzksMTYuMTIyLDYyLjU0NiwzOS43NjYNCgkJCWMzLjY1NywxMC4xMDEsNS4xNTgsMjEuOTI1LDUuMTU4LDM5LjExNlY4MTQuNTRINjU2LjdWNjM1LjQ5NUM2NTYuNyw2MDQuNzU4LDY1MS43NTYsNTk1LjUxNCw2MzMuOTE1LDU5NS41MTR6IE01OTkuMDk0LDkwNC42MDUNCgkJCXY3MC45MjRjMCwxMi4yNTQsMy4wMTIsMTYuMzQsMTMuMTE1LDE2LjM0YzQuNTEsMCwzLjIxOCwwLDYuMjMxLTEuNTA2bDIuMTQ5LDEwLjk1OWMtNS4xNjMsMi43OTQtNy4wOTQsMy42NTctMTQuMTgyLDMuNjU3DQoJCQljLTUuMzc5LDAtOS40NjUtMS4wNzctMTMuMzMxLTMuMDA3Yy03LjA5Ni0zLjY1Mi05Ljg4OS0xMC43NTMtOS44ODktMjEuOTI4di03NS40MzloLTEzLjMyNnYtMTMuMTE3aDEzLjMyNnYtNDEuNjk2aDE2LjMzNQ0KCQkJdjQxLjY5NmgyNS41ODFsLTQuOTQ5LDEzLjExN0g1OTkuMDk0eiBNNTM0LjE4NCw4OTEuOTE3bDE2LjU0OC0yLjc4OHYxMTIuNDA5aC0xNi41NDhWODkxLjkxN3oiLz4NCgk8L2c+DQo8L2c+DQo8L3N2Zz4NCg==;" parent="1" vertex="1">
          <mxGeometry x="130" y="370" width="45" height="45" as="geometry" />
        </mxCell>
        <mxCell id="Lm_wXHb1BFs4mjGN_8Cl-8" style="edgeStyle=orthogonalEdgeStyle;rounded=0;orthogonalLoop=1;jettySize=auto;html=1;" parent="1" source="Lm_wXHb1BFs4mjGN_8Cl-4" target="Lm_wXHb1BFs4mjGN_8Cl-7" edge="1">
          <mxGeometry relative="1" as="geometry" />
        </mxCell>
      </root>
    </mxGraphModel>
  </diagram>
  <diagram name="Test Transaction" id="tZ23TKIrofO894eRetNR">
    <mxGraphModel dx="1426" dy="766" grid="1" gridSize="10" guides="1" tooltips="1" connect="1" arrows="1" fold="1" page="1" pageScale="1" pageWidth="850" pageHeight="1100" math="0" shadow="0">
      <root>
        <mxCell id="zRMC7lDv2Pxj9WUFrpKq-0" />
        <mxCell id="zRMC7lDv2Pxj9WUFrpKq-1" parent="zRMC7lDv2Pxj9WUFrpKq-0" />
        <mxCell id="zRMC7lDv2Pxj9WUFrpKq-2" value="Google Cloud Platform" style="rounded=1;whiteSpace=wrap;html=1;strokeWidth=2;container=1;collapsible=0;recursiveResize=0;fillColor=#f5f5f5;strokeColor=#666666;dropTarget=1;dashed=1;shadow=1;arcSize=2;verticalAlign=top;align=left;spacingLeft=27;fontColor=#333333;" vertex="1" parent="zRMC7lDv2Pxj9WUFrpKq-1">
          <mxGeometry x="330" y="240" width="910" height="640" as="geometry" />
        </mxCell>
        <mxCell id="zRMC7lDv2Pxj9WUFrpKq-3" value="" style="group" vertex="1" connectable="0" parent="zRMC7lDv2Pxj9WUFrpKq-2">
          <mxGeometry x="95" y="380" width="680" height="150" as="geometry" />
        </mxCell>
        <mxCell id="zRMC7lDv2Pxj9WUFrpKq-4" value="Loyalty" style="rounded=1;whiteSpace=wrap;html=1;strokeWidth=2;container=1;collapsible=0;recursiveResize=0;fillColor=#f5f5f5;strokeColor=#666666;dropTarget=1;dashed=1;shadow=1;arcSize=2;verticalAlign=top;align=left;spacingLeft=27;fontColor=#333333;" vertex="1" parent="zRMC7lDv2Pxj9WUFrpKq-3">
          <mxGeometry width="680" height="150" as="geometry" />
        </mxCell>
        <mxCell id="zRMC7lDv2Pxj9WUFrpKq-5" value="Loyalty Endpoint" style="strokeColor=#666666;shadow=1;strokeWidth=2;rounded=1;absoluteArcSize=1;arcSize=2;fillColor=#f5f5f5;fontColor=#333333;spacingTop=10;spacingLeft=28;dropTarget=0;" vertex="1" parent="zRMC7lDv2Pxj9WUFrpKq-3">
          <mxGeometry x="14.879999999999995" y="60" width="160" height="40" as="geometry" />
        </mxCell>
        <mxCell id="zRMC7lDv2Pxj9WUFrpKq-6" value="Cloud Run" style="editableCssRules=.*;html=1;fontColor=#999999;shape=image;verticalLabelPosition=middle;verticalAlign=top;labelPosition=right;align=left;spacingLeft=5;part=1;points=[];imageAspect=0;image=data:image/svg+xml,PHN2ZyB4bWxucz0iaHR0cDovL3d3dy53My5vcmcvMjAwMC9zdmciIHhtbG5zOnY9Imh0dHBzOi8vdmVjdGEuaW8vbmFubyIgd2lkdGg9IjM2NS40NjQ5OTY3NzA0MjQ5MyIgaGVpZ2h0PSIzNzkuMjIyOTk0NDYzNTc3OTUiIHZpZXdCb3g9IjAgMCA5Ni42OTU5OTkxNDU1MDc4MSAxMDAuMzM1OTk4NTM1MTU2MjUiPiYjeGE7PHN0eWxlIHR5cGU9InRleHQvY3NzIj4mI3hhOwkuc3Qwe2ZpbGw6IzQyODVmNDt9JiN4YTsJLnN0MXtmaWxsOiNhZWNiZmE7fSYjeGE7PC9zdHlsZT4mI3hhOwk8cGF0aCBjbGFzcz0ic3QwIiBkPSJNMjkuNzk0IDEwMC4zMzZMNDYuOTIgNTAuMTY4aDQ5Ljc3NnpNMCA5OS42NzFsMTIuOTc2LTQ5LjUwMkgyOS4yMkwxNi44OTcgOTIuMDU0eiIvPiYjeGE7CTxwYXRoIGNsYXNzPSJzdDEiIGQ9Ik0yOS43OTQgMEw0Ni45MiA1MC4xNjhoNDkuNzc2ek0wIC42NjZsMTIuOTc2IDQ5LjUwMkgyOS4yMkwxNi44OTcgOC4yODN6Ii8+JiN4YTs8L3N2Zz4=;spacingTop=-7;spacing=0;connectable=0;allowArrows=0;" vertex="1" parent="zRMC7lDv2Pxj9WUFrpKq-5">
          <mxGeometry width="30" height="30" relative="1" as="geometry">
            <mxPoint x="5" y="5" as="offset" />
          </mxGeometry>
        </mxCell>
        <mxCell id="zRMC7lDv2Pxj9WUFrpKq-7" value="BS" style="text;html=1;align=right;verticalAlign=top;whiteSpace=wrap;rounded=0;spacing=4;spacingTop=-6;fontColor=#999999;connectable=0;allowArrows=0;" vertex="1" parent="zRMC7lDv2Pxj9WUFrpKq-5">
          <mxGeometry x="138" width="22" height="15" as="geometry" />
        </mxCell>
        <mxCell id="zRMC7lDv2Pxj9WUFrpKq-8" value="Kafka" style="strokeWidth=2;html=1;shape=stencil(zVbBcsIgEP0ajulgqGM9dqK9tZcePK8RlREhA1Tt35eEZDQmcXDrTHtj3w7v7bIPBsIyu4WCk5Qq2HPCZiRNZ8Lw3HloBg587FfbkElpCI8hfKlDsEW5ocIOYAQsJQ8Z64ze8aNYuZpBqC03wpVZNif0lZSUlLAs10p5EqGVbWUu8p4MhCoLOwUy+kTHQee7BkJUeIk9d9y00HODH4uAkPTtDi2cFEZp+oySmqO0pm2tp3QcK/d+v97oSixS6zGdTSLVPjGddaY2ihX7vRdjpTBKFCeFumH02h7RE1tgJobz4mM6i75lQ52xzCNDjybLlpDvNkZ/qVVvlQWUD3In0aT3+sDP5fc+fP39NwRSqAuCCYIBTO4Xpl2CaVxYU5wSOAmbGO2gPIQWvQSz4YmnSdYSNi332iPnRRfurxbTMIbh7xpGTCeX2vIbt8DjHYtV6IAvWbbWht8w7FpIGT4TN1TvcvV/NyUlaFP2n3+TGzzGaltnDhUaPokV8AM=);whiteSpace=wrap;fillColor=#f5f5f5;container=0;collapsible=0;recursiveResize=1;dropTarget=1;spacingRight=24;shadow=1;spacingTop=10;spacingLeft=28;align=center;strokeColor=#666666;fontColor=#333333;" vertex="1" parent="zRMC7lDv2Pxj9WUFrpKq-3">
          <mxGeometry x="220" y="59.999999999999886" width="160" height="40" as="geometry" />
        </mxCell>
        <mxCell id="zRMC7lDv2Pxj9WUFrpKq-9" value="Pub/Sub" style="editableCssRules=.*;html=1;fontColor=#999999;shape=image;verticalLabelPosition=middle;verticalAlign=top;labelPosition=right;align=left;spacingLeft=5;part=1;points=[];imageAspect=0;image=data:image/svg+xml,PHN2ZyB4bWxucz0iaHR0cDovL3d3dy53My5vcmcvMjAwMC9zdmciIHhtbG5zOnY9Imh0dHBzOi8vdmVjdGEuaW8vbmFubyIgd2lkdGg9IjE4LjMxOTk5OTY5NDgyNDIyIiBoZWlnaHQ9IjIwLjAwMDAwMTkwNzM0ODYzMyIgdmlld0JveD0iMCAwIDE4LjMxOTk5OTY5NDgyNDIyIDIwLjAwMDAwMTkwNzM0ODYzMyI+JiN4YTsJPHN0eWxlIHR5cGU9InRleHQvY3NzIj4mI3hhOwkuc3Qwe2ZpbGw6IzY2OWRmNjt9JiN4YTsJLnN0MXtmaWxsOiM0Mjg1ZjQ7fSYjeGE7CS5zdDJ7ZmlsbDojYWVjYmZhO30mI3hhOwk8L3N0eWxlPiYjeGE7CTxkZWZzPiYjeGE7CQk8ZmlsdGVyIGlkPSJBIiB4PSI0LjY0IiB5PSI0LjE5IiB3aWR0aD0iMTQuNzMiIGhlaWdodD0iMTIuNzYiIGZpbHRlclVuaXRzPSJ1c2VyU3BhY2VPblVzZSIgY29sb3ItaW50ZXJwb2xhdGlvbi1maWx0ZXJzPSJzUkdCIj4mI3hhOwkJCTxmZUZsb29kIGZsb29kLWNvbG9yPSIjZmZmIi8+JiN4YTsJCQk8ZmVCbGVuZCBpbj0iU291cmNlR3JhcGhpYyIvPiYjeGE7CQk8L2ZpbHRlcj4mI3hhOwkJPG1hc2sgaWQ9IkIiIHg9IjQuNjQiIHk9IjQuMTkiIHdpZHRoPSIxNC43MyIgaGVpZ2h0PSIxMi43NiIgbWFza1VuaXRzPSJ1c2VyU3BhY2VPblVzZSI+JiN4YTsJCQk8Y2lyY2xlIGN4PSIxMiIgY3k9IjEyLjIzIiByPSIzLjU4IiBmaWx0ZXI9InVybCgjQSkiLz4mI3hhOwkJPC9tYXNrPiYjeGE7CTwvZGVmcz4mI3hhOwk8ZyBjbGFzcz0ic3QwIj4mI3hhOwkJPGNpcmNsZSBjeD0iMTYuMTMiIGN5PSI2LjIxIiByPSIxLjcyIi8+JiN4YTsJCTxjaXJjbGUgY3g9IjIuMTkiIGN5PSI2LjIxIiByPSIxLjcyIi8+JiN4YTsJCTxjaXJjbGUgY3g9IjkuMTYiIGN5PSIxOC4yOCIgcj0iMS43MiIvPiYjeGE7CTwvZz4mI3hhOwk8ZyBtYXNrPSJ1cmwoI0IpIiB0cmFuc2Zvcm09InRyYW5zbGF0ZSgtMi44NCAtMikiPiYjeGE7CQk8cGF0aCB0cmFuc2Zvcm09Im1hdHJpeCguNSAtLjg3IC44NyAuNSAtNC41OSAyMC41MykiIGQ9Ik0xNC42OSAxMC4yMmgxLjU5djguMDRoLTEuNTl6IiBjbGFzcz0ic3QxIi8+JiN4YTsJCTxwYXRoIHRyYW5zZm9ybT0icm90YXRlKDMzMCA4LjUyMyAxNC4yNDQpIiBkPSJNNC40OSAxMy40NWg4LjA0djEuNTlINC40OXoiIGNsYXNzPSJzdDEiLz4mI3hhOwkJPHBhdGggZD0iTTExLjIgNC4xOWgxLjU5djguMDRIMTEuMnoiIGNsYXNzPSJzdDEiLz4mI3hhOwk8L2c+JiN4YTsJPGcgY2xhc3M9InN0MiI+JiN4YTsJCTxjaXJjbGUgY3g9IjkuMTYiIGN5PSIxMC4yMyIgcj0iMi43OCIvPiYjeGE7CQk8Y2lyY2xlIGN4PSIyLjE5IiBjeT0iMTQuMjUiIHI9IjIuMTkiLz4mI3hhOwkJPGNpcmNsZSBjeD0iMTYuMTMiIGN5PSIxNC4yNSIgcj0iMi4xOSIvPiYjeGE7CQk8Y2lyY2xlIGN4PSI5LjE2IiBjeT0iMi4xOSIgcj0iMi4xOSIvPiYjeGE7CTwvZz4mI3hhOzwvc3ZnPg==;spacingTop=-7;spacing=0;resizeWidth=0;resizable=0;perimeterSpacing=0;connectable=0;allowArrows=0;" vertex="1" parent="zRMC7lDv2Pxj9WUFrpKq-8">
          <mxGeometry x="5" y="5" width="27" height="30" as="geometry" />
        </mxCell>
        <mxCell id="zRMC7lDv2Pxj9WUFrpKq-10" value="Loyalty Consumer" style="strokeColor=#666666;shadow=1;strokeWidth=2;rounded=1;absoluteArcSize=1;arcSize=2;fillColor=#f5f5f5;fontColor=#333333;spacingTop=10;spacingLeft=28;dropTarget=0;" vertex="1" parent="zRMC7lDv2Pxj9WUFrpKq-3">
          <mxGeometry x="420" y="60" width="160" height="40" as="geometry" />
        </mxCell>
        <mxCell id="zRMC7lDv2Pxj9WUFrpKq-11" value="Cloud Run" style="editableCssRules=.*;html=1;fontColor=#999999;shape=image;verticalLabelPosition=middle;verticalAlign=top;labelPosition=right;align=left;spacingLeft=5;part=1;points=[];imageAspect=0;image=data:image/svg+xml,PHN2ZyB4bWxucz0iaHR0cDovL3d3dy53My5vcmcvMjAwMC9zdmciIHhtbG5zOnY9Imh0dHBzOi8vdmVjdGEuaW8vbmFubyIgd2lkdGg9IjM2NS40NjQ5OTY3NzA0MjQ5MyIgaGVpZ2h0PSIzNzkuMjIyOTk0NDYzNTc3OTUiIHZpZXdCb3g9IjAgMCA5Ni42OTU5OTkxNDU1MDc4MSAxMDAuMzM1OTk4NTM1MTU2MjUiPiYjeGE7PHN0eWxlIHR5cGU9InRleHQvY3NzIj4mI3hhOwkuc3Qwe2ZpbGw6IzQyODVmNDt9JiN4YTsJLnN0MXtmaWxsOiNhZWNiZmE7fSYjeGE7PC9zdHlsZT4mI3hhOwk8cGF0aCBjbGFzcz0ic3QwIiBkPSJNMjkuNzk0IDEwMC4zMzZMNDYuOTIgNTAuMTY4aDQ5Ljc3NnpNMCA5OS42NzFsMTIuOTc2LTQ5LjUwMkgyOS4yMkwxNi44OTcgOTIuMDU0eiIvPiYjeGE7CTxwYXRoIGNsYXNzPSJzdDEiIGQ9Ik0yOS43OTQgMEw0Ni45MiA1MC4xNjhoNDkuNzc2ek0wIC42NjZsMTIuOTc2IDQ5LjUwMkgyOS4yMkwxNi44OTcgOC4yODN6Ii8+JiN4YTs8L3N2Zz4=;spacingTop=-7;spacing=0;connectable=0;allowArrows=0;" vertex="1" parent="zRMC7lDv2Pxj9WUFrpKq-10">
          <mxGeometry width="30" height="30" relative="1" as="geometry">
            <mxPoint x="5" y="5" as="offset" />
          </mxGeometry>
        </mxCell>
        <mxCell id="zRMC7lDv2Pxj9WUFrpKq-12" value="BS" style="text;html=1;align=right;verticalAlign=top;whiteSpace=wrap;rounded=0;spacing=4;spacingTop=-6;fontColor=#999999;connectable=0;allowArrows=0;" vertex="1" parent="zRMC7lDv2Pxj9WUFrpKq-10">
          <mxGeometry x="138" width="22" height="15" as="geometry" />
        </mxCell>
        <mxCell id="zRMC7lDv2Pxj9WUFrpKq-13" style="edgeStyle=orthogonalEdgeStyle;rounded=0;orthogonalLoop=1;jettySize=auto;html=1;" edge="1" parent="zRMC7lDv2Pxj9WUFrpKq-3" source="zRMC7lDv2Pxj9WUFrpKq-5" target="zRMC7lDv2Pxj9WUFrpKq-8">
          <mxGeometry relative="1" as="geometry" />
        </mxCell>
        <mxCell id="zRMC7lDv2Pxj9WUFrpKq-14" style="edgeStyle=orthogonalEdgeStyle;rounded=0;orthogonalLoop=1;jettySize=auto;html=1;entryX=0;entryY=0.5;entryDx=0;entryDy=0;" edge="1" parent="zRMC7lDv2Pxj9WUFrpKq-3" source="zRMC7lDv2Pxj9WUFrpKq-8" target="zRMC7lDv2Pxj9WUFrpKq-10">
          <mxGeometry relative="1" as="geometry" />
        </mxCell>
        <mxCell id="zRMC7lDv2Pxj9WUFrpKq-15" value="" style="group" vertex="1" connectable="0" parent="zRMC7lDv2Pxj9WUFrpKq-2">
          <mxGeometry x="100" y="190" width="680" height="150" as="geometry" />
        </mxCell>
        <mxCell id="zRMC7lDv2Pxj9WUFrpKq-16" value="CoreComm" style="rounded=1;whiteSpace=wrap;html=1;strokeWidth=2;container=1;collapsible=0;recursiveResize=0;fillColor=#f5f5f5;strokeColor=#666666;dropTarget=1;dashed=1;shadow=1;arcSize=2;verticalAlign=top;align=left;spacingLeft=27;fontColor=#333333;" vertex="1" parent="zRMC7lDv2Pxj9WUFrpKq-15">
          <mxGeometry width="680" height="150" as="geometry" />
        </mxCell>
        <mxCell id="zRMC7lDv2Pxj9WUFrpKq-17" value="Core BS (Send Event)" style="strokeColor=#666666;shadow=1;strokeWidth=2;rounded=1;absoluteArcSize=1;arcSize=2;fillColor=#f5f5f5;fontColor=#333333;spacingTop=10;spacingLeft=28;dropTarget=0;" vertex="1" parent="zRMC7lDv2Pxj9WUFrpKq-15">
          <mxGeometry x="14.879999999999995" y="60" width="160" height="40" as="geometry" />
        </mxCell>
        <mxCell id="zRMC7lDv2Pxj9WUFrpKq-18" value="Cloud Run" style="editableCssRules=.*;html=1;fontColor=#999999;shape=image;verticalLabelPosition=middle;verticalAlign=top;labelPosition=right;align=left;spacingLeft=5;part=1;points=[];imageAspect=0;image=data:image/svg+xml,PHN2ZyB4bWxucz0iaHR0cDovL3d3dy53My5vcmcvMjAwMC9zdmciIHhtbG5zOnY9Imh0dHBzOi8vdmVjdGEuaW8vbmFubyIgd2lkdGg9IjM2NS40NjQ5OTY3NzA0MjQ5MyIgaGVpZ2h0PSIzNzkuMjIyOTk0NDYzNTc3OTUiIHZpZXdCb3g9IjAgMCA5Ni42OTU5OTkxNDU1MDc4MSAxMDAuMzM1OTk4NTM1MTU2MjUiPiYjeGE7PHN0eWxlIHR5cGU9InRleHQvY3NzIj4mI3hhOwkuc3Qwe2ZpbGw6IzQyODVmNDt9JiN4YTsJLnN0MXtmaWxsOiNhZWNiZmE7fSYjeGE7PC9zdHlsZT4mI3hhOwk8cGF0aCBjbGFzcz0ic3QwIiBkPSJNMjkuNzk0IDEwMC4zMzZMNDYuOTIgNTAuMTY4aDQ5Ljc3NnpNMCA5OS42NzFsMTIuOTc2LTQ5LjUwMkgyOS4yMkwxNi44OTcgOTIuMDU0eiIvPiYjeGE7CTxwYXRoIGNsYXNzPSJzdDEiIGQ9Ik0yOS43OTQgMEw0Ni45MiA1MC4xNjhoNDkuNzc2ek0wIC42NjZsMTIuOTc2IDQ5LjUwMkgyOS4yMkwxNi44OTcgOC4yODN6Ii8+JiN4YTs8L3N2Zz4=;spacingTop=-7;spacing=0;connectable=0;allowArrows=0;" vertex="1" parent="zRMC7lDv2Pxj9WUFrpKq-17">
          <mxGeometry width="30" height="30" relative="1" as="geometry">
            <mxPoint x="5" y="5" as="offset" />
          </mxGeometry>
        </mxCell>
        <mxCell id="zRMC7lDv2Pxj9WUFrpKq-19" value="BS" style="text;html=1;align=right;verticalAlign=top;whiteSpace=wrap;rounded=0;spacing=4;spacingTop=-6;fontColor=#999999;connectable=0;allowArrows=0;" vertex="1" parent="zRMC7lDv2Pxj9WUFrpKq-17">
          <mxGeometry x="138" width="22" height="15" as="geometry" />
        </mxCell>
        <mxCell id="zRMC7lDv2Pxj9WUFrpKq-20" value="PCM" style="strokeWidth=2;html=1;shape=stencil(zVbBcsIgEP0ajulgqGM9dqK9tZcePK8RlREhA1Tt35eEZDQmcXDrTHtj3w7v7bIPBsIyu4WCk5Qq2HPCZiRNZ8Lw3HloBg587FfbkElpCI8hfKlDsEW5ocIOYAQsJQ8Z64ze8aNYuZpBqC03wpVZNif0lZSUlLAs10p5EqGVbWUu8p4MhCoLOwUy+kTHQee7BkJUeIk9d9y00HODH4uAkPTtDi2cFEZp+oySmqO0pm2tp3QcK/d+v97oSixS6zGdTSLVPjGddaY2ihX7vRdjpTBKFCeFumH02h7RE1tgJobz4mM6i75lQ52xzCNDjybLlpDvNkZ/qVVvlQWUD3In0aT3+sDP5fc+fP39NwRSqAuCCYIBTO4Xpl2CaVxYU5wSOAmbGO2gPIQWvQSz4YmnSdYSNi332iPnRRfurxbTMIbh7xpGTCeX2vIbt8DjHYtV6IAvWbbWht8w7FpIGT4TN1TvcvV/NyUlaFP2n3+TGzzGaltnDhUaPokV8AM=);whiteSpace=wrap;fillColor=#f5f5f5;container=0;collapsible=0;recursiveResize=1;dropTarget=1;spacingRight=24;shadow=1;spacingTop=10;spacingLeft=28;align=center;strokeColor=#666666;fontColor=#333333;" vertex="1" parent="zRMC7lDv2Pxj9WUFrpKq-15">
          <mxGeometry x="220" y="59.999999999999886" width="160" height="40" as="geometry" />
        </mxCell>
        <mxCell id="zRMC7lDv2Pxj9WUFrpKq-21" value="Pub/Sub" style="editableCssRules=.*;html=1;fontColor=#999999;shape=image;verticalLabelPosition=middle;verticalAlign=top;labelPosition=right;align=left;spacingLeft=5;part=1;points=[];imageAspect=0;image=data:image/svg+xml,PHN2ZyB4bWxucz0iaHR0cDovL3d3dy53My5vcmcvMjAwMC9zdmciIHhtbG5zOnY9Imh0dHBzOi8vdmVjdGEuaW8vbmFubyIgd2lkdGg9IjE4LjMxOTk5OTY5NDgyNDIyIiBoZWlnaHQ9IjIwLjAwMDAwMTkwNzM0ODYzMyIgdmlld0JveD0iMCAwIDE4LjMxOTk5OTY5NDgyNDIyIDIwLjAwMDAwMTkwNzM0ODYzMyI+JiN4YTsJPHN0eWxlIHR5cGU9InRleHQvY3NzIj4mI3hhOwkuc3Qwe2ZpbGw6IzY2OWRmNjt9JiN4YTsJLnN0MXtmaWxsOiM0Mjg1ZjQ7fSYjeGE7CS5zdDJ7ZmlsbDojYWVjYmZhO30mI3hhOwk8L3N0eWxlPiYjeGE7CTxkZWZzPiYjeGE7CQk8ZmlsdGVyIGlkPSJBIiB4PSI0LjY0IiB5PSI0LjE5IiB3aWR0aD0iMTQuNzMiIGhlaWdodD0iMTIuNzYiIGZpbHRlclVuaXRzPSJ1c2VyU3BhY2VPblVzZSIgY29sb3ItaW50ZXJwb2xhdGlvbi1maWx0ZXJzPSJzUkdCIj4mI3hhOwkJCTxmZUZsb29kIGZsb29kLWNvbG9yPSIjZmZmIi8+JiN4YTsJCQk8ZmVCbGVuZCBpbj0iU291cmNlR3JhcGhpYyIvPiYjeGE7CQk8L2ZpbHRlcj4mI3hhOwkJPG1hc2sgaWQ9IkIiIHg9IjQuNjQiIHk9IjQuMTkiIHdpZHRoPSIxNC43MyIgaGVpZ2h0PSIxMi43NiIgbWFza1VuaXRzPSJ1c2VyU3BhY2VPblVzZSI+JiN4YTsJCQk8Y2lyY2xlIGN4PSIxMiIgY3k9IjEyLjIzIiByPSIzLjU4IiBmaWx0ZXI9InVybCgjQSkiLz4mI3hhOwkJPC9tYXNrPiYjeGE7CTwvZGVmcz4mI3hhOwk8ZyBjbGFzcz0ic3QwIj4mI3hhOwkJPGNpcmNsZSBjeD0iMTYuMTMiIGN5PSI2LjIxIiByPSIxLjcyIi8+JiN4YTsJCTxjaXJjbGUgY3g9IjIuMTkiIGN5PSI2LjIxIiByPSIxLjcyIi8+JiN4YTsJCTxjaXJjbGUgY3g9IjkuMTYiIGN5PSIxOC4yOCIgcj0iMS43MiIvPiYjeGE7CTwvZz4mI3hhOwk8ZyBtYXNrPSJ1cmwoI0IpIiB0cmFuc2Zvcm09InRyYW5zbGF0ZSgtMi44NCAtMikiPiYjeGE7CQk8cGF0aCB0cmFuc2Zvcm09Im1hdHJpeCguNSAtLjg3IC44NyAuNSAtNC41OSAyMC41MykiIGQ9Ik0xNC42OSAxMC4yMmgxLjU5djguMDRoLTEuNTl6IiBjbGFzcz0ic3QxIi8+JiN4YTsJCTxwYXRoIHRyYW5zZm9ybT0icm90YXRlKDMzMCA4LjUyMyAxNC4yNDQpIiBkPSJNNC40OSAxMy40NWg4LjA0djEuNTlINC40OXoiIGNsYXNzPSJzdDEiLz4mI3hhOwkJPHBhdGggZD0iTTExLjIgNC4xOWgxLjU5djguMDRIMTEuMnoiIGNsYXNzPSJzdDEiLz4mI3hhOwk8L2c+JiN4YTsJPGcgY2xhc3M9InN0MiI+JiN4YTsJCTxjaXJjbGUgY3g9IjkuMTYiIGN5PSIxMC4yMyIgcj0iMi43OCIvPiYjeGE7CQk8Y2lyY2xlIGN4PSIyLjE5IiBjeT0iMTQuMjUiIHI9IjIuMTkiLz4mI3hhOwkJPGNpcmNsZSBjeD0iMTYuMTMiIGN5PSIxNC4yNSIgcj0iMi4xOSIvPiYjeGE7CQk8Y2lyY2xlIGN4PSI5LjE2IiBjeT0iMi4xOSIgcj0iMi4xOSIvPiYjeGE7CTwvZz4mI3hhOzwvc3ZnPg==;spacingTop=-7;spacing=0;resizeWidth=0;resizable=0;perimeterSpacing=0;connectable=0;allowArrows=0;" vertex="1" parent="zRMC7lDv2Pxj9WUFrpKq-20">
          <mxGeometry x="5" y="5" width="27" height="30" as="geometry" />
        </mxCell>
        <mxCell id="zRMC7lDv2Pxj9WUFrpKq-22" value="PCM consumer" style="strokeColor=#666666;shadow=1;strokeWidth=2;rounded=1;absoluteArcSize=1;arcSize=2;fillColor=#f5f5f5;fontColor=#333333;spacingTop=10;spacingLeft=28;dropTarget=0;" vertex="1" parent="zRMC7lDv2Pxj9WUFrpKq-15">
          <mxGeometry x="420" y="60" width="160" height="40" as="geometry" />
        </mxCell>
        <mxCell id="zRMC7lDv2Pxj9WUFrpKq-23" value="Cloud Run" style="editableCssRules=.*;html=1;fontColor=#999999;shape=image;verticalLabelPosition=middle;verticalAlign=top;labelPosition=right;align=left;spacingLeft=5;part=1;points=[];imageAspect=0;image=data:image/svg+xml,PHN2ZyB4bWxucz0iaHR0cDovL3d3dy53My5vcmcvMjAwMC9zdmciIHhtbG5zOnY9Imh0dHBzOi8vdmVjdGEuaW8vbmFubyIgd2lkdGg9IjM2NS40NjQ5OTY3NzA0MjQ5MyIgaGVpZ2h0PSIzNzkuMjIyOTk0NDYzNTc3OTUiIHZpZXdCb3g9IjAgMCA5Ni42OTU5OTkxNDU1MDc4MSAxMDAuMzM1OTk4NTM1MTU2MjUiPiYjeGE7PHN0eWxlIHR5cGU9InRleHQvY3NzIj4mI3hhOwkuc3Qwe2ZpbGw6IzQyODVmNDt9JiN4YTsJLnN0MXtmaWxsOiNhZWNiZmE7fSYjeGE7PC9zdHlsZT4mI3hhOwk8cGF0aCBjbGFzcz0ic3QwIiBkPSJNMjkuNzk0IDEwMC4zMzZMNDYuOTIgNTAuMTY4aDQ5Ljc3NnpNMCA5OS42NzFsMTIuOTc2LTQ5LjUwMkgyOS4yMkwxNi44OTcgOTIuMDU0eiIvPiYjeGE7CTxwYXRoIGNsYXNzPSJzdDEiIGQ9Ik0yOS43OTQgMEw0Ni45MiA1MC4xNjhoNDkuNzc2ek0wIC42NjZsMTIuOTc2IDQ5LjUwMkgyOS4yMkwxNi44OTcgOC4yODN6Ii8+JiN4YTs8L3N2Zz4=;spacingTop=-7;spacing=0;connectable=0;allowArrows=0;" vertex="1" parent="zRMC7lDv2Pxj9WUFrpKq-22">
          <mxGeometry width="30" height="30" relative="1" as="geometry">
            <mxPoint x="5" y="5" as="offset" />
          </mxGeometry>
        </mxCell>
        <mxCell id="zRMC7lDv2Pxj9WUFrpKq-24" value="BS" style="text;html=1;align=right;verticalAlign=top;whiteSpace=wrap;rounded=0;spacing=4;spacingTop=-6;fontColor=#999999;connectable=0;allowArrows=0;" vertex="1" parent="zRMC7lDv2Pxj9WUFrpKq-22">
          <mxGeometry x="138" width="22" height="15" as="geometry" />
        </mxCell>
        <mxCell id="zRMC7lDv2Pxj9WUFrpKq-25" style="edgeStyle=orthogonalEdgeStyle;rounded=0;orthogonalLoop=1;jettySize=auto;html=1;" edge="1" parent="zRMC7lDv2Pxj9WUFrpKq-15" source="zRMC7lDv2Pxj9WUFrpKq-17" target="zRMC7lDv2Pxj9WUFrpKq-20">
          <mxGeometry relative="1" as="geometry" />
        </mxCell>
        <mxCell id="zRMC7lDv2Pxj9WUFrpKq-26" style="edgeStyle=orthogonalEdgeStyle;rounded=0;orthogonalLoop=1;jettySize=auto;html=1;entryX=0;entryY=0.5;entryDx=0;entryDy=0;" edge="1" parent="zRMC7lDv2Pxj9WUFrpKq-15" source="zRMC7lDv2Pxj9WUFrpKq-20" target="zRMC7lDv2Pxj9WUFrpKq-22">
          <mxGeometry relative="1" as="geometry" />
        </mxCell>
        <mxCell id="zRMC7lDv2Pxj9WUFrpKq-27" value="" style="shape=image;aspect=fixed;image=data:image/svg+xml,PHN2ZyBoZWlnaHQ9IjIwNiIgcHJlc2VydmVBc3BlY3RSYXRpbz0ieE1pZFlNaWQiIHZpZXdCb3g9IjAgMCAyNTYgMjA2IiB3aWR0aD0iMjU2IiB4bWxucz0iaHR0cDovL3d3dy53My5vcmcvMjAwMC9zdmciPjxwYXRoIGQ9Im0xNzAuMjUxNyA1Ni44MTg2IDIyLjI1My0yMi4yNTMgMS40ODMtOS4zN2MtNDAuNTUxLTM2Ljg3My0xMDUuMDEyLTMyLjY5Mi0xNDEuNTY3IDguNzI0LTEwLjE1NCAxMS41MDMtMTcuNjg3IDI1Ljg0NC0yMS43MDQgNDAuNjUzbDcuOTctMS4xMjMgNDQuNTA1LTcuMzM5IDMuNDM2LTMuNTE0YzE5Ljc5Ny0yMS43NDIgNTMuMjctMjQuNjY3IDc2LjEyOC02LjE2OHoiIGZpbGw9IiNlYTQzMzUiLz48cGF0aCBkPSJtMjI0LjIwNDggNzMuOTE4MmMtNS4xMTUtMTguODM2LTE1LjYxNi0zNS43NjktMzAuMjE3LTQ4LjcyMmwtMzEuMjMyIDMxLjIzMmMxMy4xODggMTAuNzc2IDIwLjcwMSAyNy4wMSAyMC4zNzkgNDQuMDM3djUuNTQ0YzE1LjM1MSAwIDI3Ljc5NyAxMi40NDUgMjcuNzk3IDI3Ljc5NiAwIDE1LjM1Mi0xMi40NDYgMjcuNDg1LTI3Ljc5NyAyNy40ODVoLTU1LjY3MWwtNS40NjYgNS45MzR2MzMuMzRsNS40NjYgNS4yMzFoNTUuNjcxYzM5LjkzLjMxMSA3Mi41NTItMzEuNDk0IDcyLjg2My03MS40MjQuMTg4LTI0LjIwMy0xMS43NDUtNDYuODkzLTMxLjc5My02MC40NTMiIGZpbGw9IiM0Mjg1ZjQiLz48cGF0aCBkPSJtNzEuODcwNCAyMDUuNzk1N2g1NS41OTN2LTQ0LjUwNmgtNTUuNTkzYy0zLjk2MS0uMDAxLTcuNzk3LS44NTItMTEuMzk5LTIuNDk4bC03Ljg4NyAyLjQyLTIyLjQwOSAyMi4yNTMtMS45NTIgNy41NzRjMTIuNTY3IDkuNDg5IDI3LjkgMTQuODI1IDQzLjY0NyAxNC43NTciIGZpbGw9IiMzNGE4NTMiLz48cGF0aCBkPSJtNzEuODcwNCA2MS40MjU1Yy0zOS45MzEuMjM4LTcyLjEwNyAzMi44MDItNzEuODY5IDcyLjczMi4xMzMgMjIuMjk4IDEwLjU0NyA0My4yODggMjguMjIyIDU2Ljg4MWwzMi4yNDgtMzIuMjQ3Yy0xMy45OTEtNi4zMjEtMjAuMjA4LTIyLjc4Ni0xMy44ODctMzYuNzc2IDYuMzItMTMuOTkgMjIuNzg2LTIwLjIwNyAzNi43NzUtMTMuODg3IDYuMTY1IDIuNzg1IDExLjEwMiA3LjcyMyAxMy44ODcgMTMuODg3bDMyLjI0OC0zMi4yNDdjLTEzLjcyMS0xNy45MzctMzUuMDQxLTI4LjQyNC01Ny42MjQtMjguMzQzIiBmaWxsPSIjZmJiYzA1Ii8+PC9zdmc+;movable=0;" vertex="1" parent="zRMC7lDv2Pxj9WUFrpKq-2">
          <mxGeometry x="5" y="5" width="19.88" height="16" as="geometry" />
        </mxCell>
        <mxCell id="zRMC7lDv2Pxj9WUFrpKq-28" style="edgeStyle=orthogonalEdgeStyle;rounded=0;orthogonalLoop=1;jettySize=auto;html=1;entryX=0.75;entryY=0;entryDx=0;entryDy=0;fillColor=#d5e8d4;strokeColor=#82b366;strokeWidth=2;" edge="1" parent="zRMC7lDv2Pxj9WUFrpKq-2" target="zRMC7lDv2Pxj9WUFrpKq-17">
          <mxGeometry relative="1" as="geometry">
            <mxPoint x="220" y="140" as="sourcePoint" />
            <Array as="points">
              <mxPoint x="370" y="140" />
              <mxPoint x="370" y="210" />
              <mxPoint x="235" y="210" />
            </Array>
          </mxGeometry>
        </mxCell>
        <mxCell id="zRMC7lDv2Pxj9WUFrpKq-29" style="edgeStyle=orthogonalEdgeStyle;rounded=0;orthogonalLoop=1;jettySize=auto;html=1;exitX=1;exitY=0.25;exitDx=0;exitDy=0;entryX=1;entryY=0.5;entryDx=0;entryDy=0;fillColor=#d5e8d4;strokeColor=#82b366;strokeWidth=2;" edge="1" parent="zRMC7lDv2Pxj9WUFrpKq-2" source="zRMC7lDv2Pxj9WUFrpKq-32" target="zRMC7lDv2Pxj9WUFrpKq-10">
          <mxGeometry relative="1" as="geometry">
            <Array as="points">
              <mxPoint x="870" y="120" />
              <mxPoint x="870" y="460" />
            </Array>
          </mxGeometry>
        </mxCell>
        <mxCell id="zRMC7lDv2Pxj9WUFrpKq-30" style="edgeStyle=orthogonalEdgeStyle;rounded=0;orthogonalLoop=1;jettySize=auto;html=1;exitX=1;exitY=0.25;exitDx=0;exitDy=0;entryX=0.5;entryY=1;entryDx=0;entryDy=0;fillColor=#d5e8d4;strokeColor=#82b366;strokeWidth=2;" edge="1" parent="zRMC7lDv2Pxj9WUFrpKq-2" source="zRMC7lDv2Pxj9WUFrpKq-32" target="zRMC7lDv2Pxj9WUFrpKq-5">
          <mxGeometry relative="1" as="geometry">
            <Array as="points">
              <mxPoint x="870" y="120" />
              <mxPoint x="870" y="580" />
              <mxPoint x="190" y="580" />
            </Array>
          </mxGeometry>
        </mxCell>
        <mxCell id="zRMC7lDv2Pxj9WUFrpKq-31" value="Loyalty Health" style="edgeLabel;html=1;align=center;verticalAlign=middle;resizable=0;points=[];" vertex="1" connectable="0" parent="zRMC7lDv2Pxj9WUFrpKq-30">
          <mxGeometry x="-0.8291" y="3" relative="1" as="geometry">
            <mxPoint as="offset" />
          </mxGeometry>
        </mxCell>
        <mxCell id="zRMC7lDv2Pxj9WUFrpKq-32" value="mkt-self-service-bff" style="strokeColor=#666666;shadow=1;strokeWidth=2;rounded=1;absoluteArcSize=1;arcSize=2;fillColor=#f5f5f5;fontColor=#333333;spacingTop=10;spacingLeft=28;dropTarget=0;" vertex="1" parent="zRMC7lDv2Pxj9WUFrpKq-2">
          <mxGeometry x="60" y="110.00000000000011" width="160" height="40" as="geometry" />
        </mxCell>
        <mxCell id="zRMC7lDv2Pxj9WUFrpKq-33" value="Cloud Run" style="editableCssRules=.*;html=1;fontColor=#999999;shape=image;verticalLabelPosition=middle;verticalAlign=top;labelPosition=right;align=left;spacingLeft=5;part=1;points=[];imageAspect=0;image=data:image/svg+xml,PHN2ZyB4bWxucz0iaHR0cDovL3d3dy53My5vcmcvMjAwMC9zdmciIHhtbG5zOnY9Imh0dHBzOi8vdmVjdGEuaW8vbmFubyIgd2lkdGg9IjM2NS40NjQ5OTY3NzA0MjQ5MyIgaGVpZ2h0PSIzNzkuMjIyOTk0NDYzNTc3OTUiIHZpZXdCb3g9IjAgMCA5Ni42OTU5OTkxNDU1MDc4MSAxMDAuMzM1OTk4NTM1MTU2MjUiPiYjeGE7PHN0eWxlIHR5cGU9InRleHQvY3NzIj4mI3hhOwkuc3Qwe2ZpbGw6IzQyODVmNDt9JiN4YTsJLnN0MXtmaWxsOiNhZWNiZmE7fSYjeGE7PC9zdHlsZT4mI3hhOwk8cGF0aCBjbGFzcz0ic3QwIiBkPSJNMjkuNzk0IDEwMC4zMzZMNDYuOTIgNTAuMTY4aDQ5Ljc3NnpNMCA5OS42NzFsMTIuOTc2LTQ5LjUwMkgyOS4yMkwxNi44OTcgOTIuMDU0eiIvPiYjeGE7CTxwYXRoIGNsYXNzPSJzdDEiIGQ9Ik0yOS43OTQgMEw0Ni45MiA1MC4xNjhoNDkuNzc2ek0wIC42NjZsMTIuOTc2IDQ5LjUwMkgyOS4yMkwxNi44OTcgOC4yODN6Ii8+JiN4YTs8L3N2Zz4=;spacingTop=-7;spacing=0;connectable=0;allowArrows=0;" vertex="1" parent="zRMC7lDv2Pxj9WUFrpKq-32">
          <mxGeometry width="30" height="30" relative="1" as="geometry">
            <mxPoint x="5" y="5" as="offset" />
          </mxGeometry>
        </mxCell>
        <mxCell id="zRMC7lDv2Pxj9WUFrpKq-34" value="BS" style="text;html=1;align=right;verticalAlign=top;whiteSpace=wrap;rounded=0;spacing=4;spacingTop=-6;fontColor=#999999;connectable=0;allowArrows=0;" vertex="1" parent="zRMC7lDv2Pxj9WUFrpKq-32">
          <mxGeometry x="138" width="22" height="15" as="geometry" />
        </mxCell>
        <mxCell id="zRMC7lDv2Pxj9WUFrpKq-35" value="mkt-self-service-ui" style="strokeColor=#666666;shadow=1;strokeWidth=2;rounded=1;absoluteArcSize=1;arcSize=2;fillColor=#f5f5f5;fontColor=#333333;spacingTop=10;spacingLeft=28;dropTarget=0;" vertex="1" parent="zRMC7lDv2Pxj9WUFrpKq-2">
          <mxGeometry x="60" y="50.000000000000114" width="160" height="40" as="geometry" />
        </mxCell>
        <mxCell id="zRMC7lDv2Pxj9WUFrpKq-36" value="Cloud Run" style="editableCssRules=.*;html=1;fontColor=#999999;shape=image;verticalLabelPosition=middle;verticalAlign=top;labelPosition=right;align=left;spacingLeft=5;part=1;points=[];imageAspect=0;image=data:image/svg+xml,PHN2ZyB4bWxucz0iaHR0cDovL3d3dy53My5vcmcvMjAwMC9zdmciIHhtbG5zOnY9Imh0dHBzOi8vdmVjdGEuaW8vbmFubyIgd2lkdGg9IjM2NS40NjQ5OTY3NzA0MjQ5MyIgaGVpZ2h0PSIzNzkuMjIyOTk0NDYzNTc3OTUiIHZpZXdCb3g9IjAgMCA5Ni42OTU5OTkxNDU1MDc4MSAxMDAuMzM1OTk4NTM1MTU2MjUiPiYjeGE7PHN0eWxlIHR5cGU9InRleHQvY3NzIj4mI3hhOwkuc3Qwe2ZpbGw6IzQyODVmNDt9JiN4YTsJLnN0MXtmaWxsOiNhZWNiZmE7fSYjeGE7PC9zdHlsZT4mI3hhOwk8cGF0aCBjbGFzcz0ic3QwIiBkPSJNMjkuNzk0IDEwMC4zMzZMNDYuOTIgNTAuMTY4aDQ5Ljc3NnpNMCA5OS42NzFsMTIuOTc2LTQ5LjUwMkgyOS4yMkwxNi44OTcgOTIuMDU0eiIvPiYjeGE7CTxwYXRoIGNsYXNzPSJzdDEiIGQ9Ik0yOS43OTQgMEw0Ni45MiA1MC4xNjhoNDkuNzc2ek0wIC42NjZsMTIuOTc2IDQ5LjUwMkgyOS4yMkwxNi44OTcgOC4yODN6Ii8+JiN4YTs8L3N2Zz4=;spacingTop=-7;spacing=0;connectable=0;allowArrows=0;" vertex="1" parent="zRMC7lDv2Pxj9WUFrpKq-35">
          <mxGeometry width="30" height="30" relative="1" as="geometry">
            <mxPoint x="5" y="5" as="offset" />
          </mxGeometry>
        </mxCell>
        <mxCell id="zRMC7lDv2Pxj9WUFrpKq-37" value="BS" style="text;html=1;align=right;verticalAlign=top;whiteSpace=wrap;rounded=0;spacing=4;spacingTop=-6;fontColor=#999999;connectable=0;allowArrows=0;" vertex="1" parent="zRMC7lDv2Pxj9WUFrpKq-35">
          <mxGeometry x="138" width="22" height="15" as="geometry" />
        </mxCell>
        <mxCell id="zRMC7lDv2Pxj9WUFrpKq-38" style="edgeStyle=orthogonalEdgeStyle;rounded=0;orthogonalLoop=1;jettySize=auto;html=1;entryX=0.631;entryY=0.075;entryDx=0;entryDy=0;entryPerimeter=0;fillColor=#d5e8d4;strokeColor=#82b366;strokeWidth=2;exitX=1;exitY=0.75;exitDx=0;exitDy=0;" edge="1" parent="zRMC7lDv2Pxj9WUFrpKq-2" source="zRMC7lDv2Pxj9WUFrpKq-32" target="zRMC7lDv2Pxj9WUFrpKq-22">
          <mxGeometry relative="1" as="geometry">
            <mxPoint x="220" y="130" as="sourcePoint" />
          </mxGeometry>
        </mxCell>
        <mxCell id="zRMC7lDv2Pxj9WUFrpKq-39" value="CoreComm Health" style="edgeLabel;html=1;align=center;verticalAlign=middle;resizable=0;points=[];" vertex="1" connectable="0" parent="zRMC7lDv2Pxj9WUFrpKq-38">
          <mxGeometry x="-0.764" y="2" relative="1" as="geometry">
            <mxPoint as="offset" />
          </mxGeometry>
        </mxCell>
        <mxCell id="dl9EccaXcwtJax8U9ou2-0" value="Test&amp;nbsp;&lt;div&gt;Transaction DB&lt;/div&gt;" style="strokeWidth=2;html=1;shape=mxgraph.flowchart.database;whiteSpace=wrap;fillColor=#f5f5f5;fontColor=#333333;strokeColor=#666666;spacingTop=10;dropTarget=0;container=0;collapsible=0;recursiveResize=1;spacingLeft=20;shadow=1;" vertex="1" parent="zRMC7lDv2Pxj9WUFrpKq-2">
          <mxGeometry x="730" y="5" width="130" height="79" as="geometry" />
        </mxCell>
        <mxCell id="dl9EccaXcwtJax8U9ou2-1" value="Firestore" style="text;html=1;align=center;verticalAlign=middle;whiteSpace=wrap;rounded=0;fontColor=#999999;movable=0;connectable=0;allowArrows=0;" vertex="1" parent="dl9EccaXcwtJax8U9ou2-0">
          <mxGeometry width="130" height="26.333333333333332" as="geometry" />
        </mxCell>
        <mxCell id="dl9EccaXcwtJax8U9ou2-2" value="" style="sketch=0;html=1;verticalAlign=top;labelPosition=center;verticalLabelPosition=bottom;align=center;spacingTop=-6;fontSize=11;fontStyle=1;fontColor=#999999;shape=image;aspect=fixed;imageAspect=0;image=data:image/svg+xml,PHN2ZyB4bWxucz0iaHR0cDovL3d3dy53My5vcmcvMjAwMC9zdmciIHhtbG5zOnY9Imh0dHBzOi8vdmVjdGEuaW8vbmFubyIgd2lkdGg9IjMyMy45MDU2MTAzOTg2NzUxNSIgaGVpZ2h0PSIzNzYuNDIyMjk0OTYzNjg0MDciIHZpZXdCb3g9Ii0wLjA5NzAwMDAwMjg2MTAyMjk1IDAuMjg3OTk5OTg3NjAyMjMzOSA4NS42OTk5OTY5NDgyNDIxOSA5OS41OTUwMDEyMjA3MDMxMiI+JiN4YTs8c3R5bGUgdHlwZT0idGV4dC9jc3MiPiYjeGE7CS5zdDB7ZmlsbDojYWVjYmZhO30mI3hhOwkuc3Qxe2ZpbGw6IzY2OWRmNjt9JiN4YTsJLnN0MntmaWxsOiM0Mjg1ZjQ7fSYjeGE7PC9zdHlsZT4mI3hhOwk8cGF0aCBjbGFzcz0ic3QwIiBkPSJNLS4wOTcgNzUuODE1VjU1Ljg3NGw0Mi44NS0yMC4xODN2MTkuMDd6bTAtMzUuNDAzVjIwLjQ3MUw0Mi43NTMuMjg4djE5LjA3eiIvPiYjeGE7CTxwYXRoIGNsYXNzPSJzdDEiIGQ9Ik04NS42MDMgNzUuODE1VjU1Ljg3NGwtNDIuODUtMjAuMTgzdjE5LjA3em0wLTM1LjQwM1YyMC40NzFMNDIuNzUzLjI4OHYxOS4wN3oiLz4mI3hhOwk8cGF0aCBjbGFzcz0ic3QyIiBkPSJNNDIuNzUzIDgwLjMxNGwxNi4yMTctNy41MjUgMjEuMDg0IDkuNzE3LTM3LjMwMSAxNy4zNzd6Ii8+JiN4YTs8L3N2Zz4=;resizable=0;connectable=0;allowArrows=0;deletable=0;cloneable=0;rotatable=0;recursiveResize=0;expand=0;" vertex="1" parent="dl9EccaXcwtJax8U9ou2-0">
          <mxGeometry x="5" y="26.333333333333332" width="25.71" height="30" as="geometry" />
        </mxCell>
        <mxCell id="zRMC7lDv2Pxj9WUFrpKq-40" value="" style="group" vertex="1" connectable="0" parent="zRMC7lDv2Pxj9WUFrpKq-1">
          <mxGeometry x="10" y="368.0000000000001" width="60" height="79.99999999999989" as="geometry" />
        </mxCell>
        <mxCell id="zRMC7lDv2Pxj9WUFrpKq-41" value="" style="shape=actor;whiteSpace=wrap;html=1;rounded=0;shadow=1;strokeColor=#666666;strokeWidth=2;fillColor=#f5f5f5;fontFamily=Helvetica;fontSize=12;align=center;fontColor=#333333;" vertex="1" parent="zRMC7lDv2Pxj9WUFrpKq-40">
          <mxGeometry x="10" width="40" height="50" as="geometry" />
        </mxCell>
        <mxCell id="zRMC7lDv2Pxj9WUFrpKq-42" value="Postman" style="text;html=1;whiteSpace=wrap;strokeColor=none;fillColor=none;align=center;verticalAlign=middle;rounded=0;" vertex="1" parent="zRMC7lDv2Pxj9WUFrpKq-40">
          <mxGeometry y="49.999999999999886" width="60" height="30" as="geometry" />
        </mxCell>
        <mxCell id="zRMC7lDv2Pxj9WUFrpKq-43" style="edgeStyle=orthogonalEdgeStyle;rounded=0;orthogonalLoop=1;jettySize=auto;html=1;entryX=0;entryY=0.5;entryDx=0;entryDy=0;fillColor=#d5e8d4;strokeColor=#82b366;strokeWidth=2;" edge="1" parent="zRMC7lDv2Pxj9WUFrpKq-1" source="zRMC7lDv2Pxj9WUFrpKq-47" target="zRMC7lDv2Pxj9WUFrpKq-32">
          <mxGeometry relative="1" as="geometry" />
        </mxCell>
        <mxCell id="zRMC7lDv2Pxj9WUFrpKq-44" value="Health" style="edgeLabel;html=1;align=center;verticalAlign=middle;resizable=0;points=[];" vertex="1" connectable="0" parent="zRMC7lDv2Pxj9WUFrpKq-43">
          <mxGeometry x="0.3313" relative="1" as="geometry">
            <mxPoint as="offset" />
          </mxGeometry>
        </mxCell>
        <mxCell id="zRMC7lDv2Pxj9WUFrpKq-45" style="edgeStyle=orthogonalEdgeStyle;rounded=0;orthogonalLoop=1;jettySize=auto;html=1;exitX=1;exitY=0.75;exitDx=0;exitDy=0;entryX=0;entryY=0.5;entryDx=0;entryDy=0;strokeWidth=2;fillColor=#ffe6cc;strokeColor=#d79b00;" edge="1" parent="zRMC7lDv2Pxj9WUFrpKq-1" source="zRMC7lDv2Pxj9WUFrpKq-47" target="zRMC7lDv2Pxj9WUFrpKq-17">
          <mxGeometry relative="1" as="geometry">
            <Array as="points">
              <mxPoint x="310" y="404" />
              <mxPoint x="310" y="510" />
            </Array>
          </mxGeometry>
        </mxCell>
        <mxCell id="zRMC7lDv2Pxj9WUFrpKq-46" style="edgeStyle=orthogonalEdgeStyle;rounded=0;orthogonalLoop=1;jettySize=auto;html=1;fillColor=#f8cecc;strokeColor=#b85450;strokeWidth=2;" edge="1" parent="zRMC7lDv2Pxj9WUFrpKq-1" source="zRMC7lDv2Pxj9WUFrpKq-47" target="zRMC7lDv2Pxj9WUFrpKq-22">
          <mxGeometry relative="1" as="geometry">
            <Array as="points">
              <mxPoint x="153" y="560" />
              <mxPoint x="930" y="560" />
            </Array>
          </mxGeometry>
        </mxCell>
        <mxCell id="zRMC7lDv2Pxj9WUFrpKq-47" value="" style="shape=image;verticalLabelPosition=bottom;labelBackgroundColor=default;verticalAlign=top;aspect=fixed;imageAspect=0;image=data:image/svg+xml,PD94bWwgdmVyc2lvbj0iMS4wIiBlbmNvZGluZz0idXRmLTgiPz4NCjwhLS0gR2VuZXJhdG9yOiBBZG9iZSBJbGx1c3RyYXRvciAxNi4wLjAsIFNWRyBFeHBvcnQgUGx1Zy1JbiAuIFNWRyBWZXJzaW9uOiA2LjAwIEJ1aWxkIDApICAtLT4NCjwhRE9DVFlQRSBzdmcgUFVCTElDICItLy9XM0MvL0RURCBTVkcgMS4xLy9FTiIgImh0dHA6Ly93d3cudzMub3JnL0dyYXBoaWNzL1NWRy8xLjEvRFREL3N2ZzExLmR0ZCI+DQo8c3ZnIHZlcnNpb249IjEuMSIgaWQ9IkxheWVyXzEiIHhtbG5zPSJodHRwOi8vd3d3LnczLm9yZy8yMDAwL3N2ZyIgeG1sbnM6eGxpbms9Imh0dHA6Ly93d3cudzMub3JnLzE5OTkveGxpbmsiIHg9IjBweCIgeT0iMHB4Ig0KCSB3aWR0aD0iMTEyNXB4IiBoZWlnaHQ9IjExMjVweCIgdmlld0JveD0iMCAwIDExMjUgMTEyNSIgZW5hYmxlLWJhY2tncm91bmQ9Im5ldyAwIDAgMTEyNSAxMTI1IiB4bWw6c3BhY2U9InByZXNlcnZlIj4NCjxnIGlkPSJMYXllcl8yXzFfIj4NCgk8Zz4NCgkJPHJlY3QgeD0iMy4wNjIiIHk9IjIuMDYyIiBmaWxsPSIjQkMxRjI3IiB3aWR0aD0iMTExOS44NDgiIGhlaWdodD0iMTExOS44NDgiLz4NCgkJPHBhdGggZmlsbD0iI0ZGRkZGRiIgZD0iTTMxNi4wMTYsNDU5LjQ1OGMtMTkuNzczLTExLjgyNS0zOC4wNDEtMTguMjcyLTk4LjAxLTE4LjI3MmgtOTIuODU2djM3My41N2g3MS4xNDZWNjc3LjE5MWgzOC45MDQNCgkJCWMzOS4xMjEsMCw1NC4zNzktNC4zLDcwLjUwMy0xMi40NjhjMzguNDc0LTE5LjM0Nyw2MC44MjctNTkuMTA3LDYwLjgyNy0xMDguNTQxQzM2Ni43NDUsNTEzLjE5MSwzNDguOTA0LDQ3OC44MDIsMzE2LjAxNiw0NTkuNDU4DQoJCQl6IE0yODAuNTUzLDU5Ni41ODZjLTkuNjc0LDE1LjY5Ny0xOC4yNzMsMTkuMzQ3LTQ3LjI4OCwxOS4zNDdoLTM2Ljk3VjUwMi4wMTdoNDUuMTM3YzI5Ljg3OSwwLDQ3LjcxOCwyMS4wNjQsNDcuNzE4LDU1Ljg4Mw0KCQkJQzI4OS4xNDksNTc1LjUyNCwyODYuNTcxLDU4Ni40ODUsMjgwLjU1Myw1OTYuNTg2eiBNMTI1LjE0OSw4NTAuMDA2aDE2LjMzN3YxNTEuNTMyaC0xNi4zMzdWODUwLjAwNnogTTMxMC44NTUsODg4LjY5NA0KCQkJYy0xMi4yNDksMC0yMi4zNTIsNC45NDQtMzAuNTE5LDE1LjI2MWMtOC41OTcsMTAuOTYxLTEyLjI0OSwyMy4wMDQtMTIuMjQ5LDQxLjQ4N2MwLDM2LjUzOCwxNi45NzgsNTguNDYsNDUuMTM3LDU4LjQ2DQoJCQljMTMuMTA5LDAsMjUuMzU4LTQuOTQ0LDM0LjM5LTEzLjc1NWwtNi4yMzItMTAuOTYxYy03LjA5NCw3LjA5MS0xNS4wNDgsMTAuMzE4LTI0LjkzNSwxMC4zMTgNCgkJCWMtMTAuMzE4LDAtMTkuNTYzLTMuODcyLTI1LjM2NS0xMy41NDZjLTMuNDM3LTUuODAxLTQuNzI3LTEzLjc1Mi00LjcyNy0yNC4wN3YtMi41NzhoNjMuNDA3di0yLjM2Nw0KCQkJYy0wLjQyNy0yNi4yMTktMi43OTEtMzYuNzUxLTExLjYwNC00Ni40MjVDMzMxLjQ5Miw4OTIuOTk0LDMyMi4wMzcsODg4LjY5NCwzMTAuODU1LDg4OC42OTR6IE0yODYuNTcxLDkzNi40MTQNCgkJCWMwLjg1OC0yMi43ODUsOS4wMjgtMzQuMTgxLDIzLjQyNi0zNC4xODFjNy43NCwwLDE0LjgzMSwzLjY1NywxOC4yNzUsOS42ODFjMy4wMDQsNS4zNjYsNC41MSwxMi42NzYsNC43MjYsMjQuNUgyODYuNTcxeg0KCQkJIE00NDQuMzM5LDkwNS4yNDhjMS43MjIsMy44NjUsMi4zNjEsOC4zODEsMi4zNjEsMTIuODk2djgzLjM5NWgtMTYuMTE5VjkyNy4xN2MwLTExLjYwNi0wLjg2My0xNC42MTgtMy42NTQtMTguMjcxDQoJCQljLTIuMTUzLTIuNzkzLTYuNDQ4LTQuNzI5LTExLjE3NS00LjcyOWMtOC4xNzIsMC0yMC44NTMsNy4wOTMtMjguMTU5LDE1LjQ3NHY4MS44OTRoLTE1LjQ3OXYtODQuOQ0KCQkJYzAtMTUuNjg5LTMuODYzLTIzLjIxNS0zLjg2My0yMy4yMTVsMTUuNDcyLTQuNzI5YzAsMCwzLjY1Miw4LjE3MywzLjY1MiwxNy4xOTZjMTAuNTM0LTExLjM5MywyMS4yNzktMTYuOTgsMzIuMDI5LTE2Ljk4DQoJCQlDNDMwLjM2OCw4ODkuMTI5LDQ0MC4yNTIsODk1LjU3NCw0NDQuMzM5LDkwNS4yNDh6IE0zODcuNTkzLDQ2My43NTVjMC0yNC43MTYsMTkuMzQ3LTQ0LjQ4OSw0Mi41NTctNDQuNDg5DQoJCQljMjIuNzg2LDAsNDEuMDU0LDE5Ljk4Niw0MS4wNTQsNDQuNDg5YzAsMjQuNzIxLTE4LjkxNSw0NC43MS00Mi4xMjUsNDQuNzFDNDA2LjUwOCw1MDguNDY1LDM4Ny41OTMsNDg4LjQ3NiwzODcuNTkzLDQ2My43NTV6DQoJCQkgTTM5NS4zMzEsNTQ0LjM2bDY3LjkyMy0xMS4zOTZWODE0LjU0aC02Ny45MjNWNTQ0LjM2eiBNNDkwLjc2Niw4OTEuNzA5aDI2LjIyMmwtNC45NDIsMTMuMTA0aC0yMS45Mjd2NzAuOTM3DQoJCQljMCwxMi4yNDksMy4wMTIsMTYuMzI4LDEzLjExNCwxNi4zMjhjNC41MTEsMCwzLjIyMywwLDYuMjMyLTEuNTAxbDIuMTQ4LDEwLjk2MWMtNS4xNTgsMi43OTktNy4wOTMsMy42NTctMTQuMTg4LDMuNjU3DQoJCQljLTUuMzcxLDAtOS40NTMtMS4wNzktMTMuMzIzLTMuMDFjLTcuMDkxLTMuNjU3LTkuODg3LTEwLjc1LTkuODg3LTIxLjkyNXYtNzUuNDQ3SDQ2MC44OXYtMTMuMTA0aDEzLjMyNXYtNDEuNzAzaDE2LjMzNXY0MS43MDMNCgkJCUg0OTAuNzY2eiBNMjQ3LjY2Nyw4NTAuMDA2aC0xNS45MDZ2MzYuNTM3YzAsNy45NTUsMC4yMTEsMTYuOTgzLDAuMjExLDE2Ljk4M2MtNi4wMTctOC44MTUtMTYuMTE5LTEzLjk2OS0yNy41MTItMTMuOTY5DQoJCQljLTcuMzA3LDAtMTMuMTA3LDEuOTMxLTE5LjU1OCw2Ljg3NWMtMTMuOTcsMTAuMzE2LTIxLjA2MSwyNy41MTUtMjEuMDYxLDUwLjk0YzAsMzUuMDM2LDE1LjA0NSw1NS42NzEsNDEuNDgyLDU1LjY3MQ0KCQkJYzExLjgxOSwwLDE5LjU1OC0zLjY1MSwyNi44NjQtMTIuODk2YzAuMjE2LDUuODA5LDIuMTUzLDExLjE3NSwyLjE1MywxMS4xNzVoMTYuMzMzYy0yLjM2NC02LjQ0NS0zLjAwNy0xNi41NDYtMy4wMDctMzUuNDU5DQoJCQlWODUwLjAwNkwyNDcuNjY3LDg1MC4wMDZ6IE0yMzEuNTQ1LDk3My41OTVjMCwwLTEuOTM2LDQuNzM2LTYuMjMyLDcuOTU5Yy02LjQ0OCw1LjE1OC0xMS4xNzcsNy4wODgtMTkuNTYzLDcuMDg4DQoJCQljLTkuNDU1LDAtMTUuNjg4LTMuNjUxLTIwLjQxNy0xMi44OTJjLTMuMjI1LTYuNDUtNC4wODMtMTUuOTEtNC4wODMtMjguODA3YzAtMTUuNDc0LDEuNzIyLTIzLjQyNiw2LjQ0OC0zMS44MDcNCgkJCWM0LjI5Ny03LjUyNCwxMC45NjEtMTEuMzk1LDE4LjkxNS0xMS4zOTVjMTIuMDM2LDAsMTkuNTU4LDMuNjUxLDI0LjcxNiwxMS4zOTV2NTguNDU4SDIzMS41NDV6IE03MjMuMTE3LDg5MS40ODhsLTM0LjgyMywxMTMuOTINCgkJCWMtNi44OCwyMi4xMzYtMTUuMDQ1LDM2Ljc1OS0zMi44ODYsNDEuMjdsLTQuNzI5LTExLjYwOGM5Ljg4OC0zLjQzOSwxNS4wNDUtOC4xNjMsMTkuNTY1LTIwLjIwNg0KCQkJYy0xLjcyMi04LjU5Ny0yLjU3OC0xMi40NjctMi41NzgtMTIuNDY3Yy0xLjI5Ny03LjA5MS02LjY2Ni0yOC41ODYtMTAuMTAzLTM5LjU0N2wtMjIuMTQ2LTY4Ljc4MWwxNS42OTUtNS44MDNsMjAuODQ4LDcxLjM2MQ0KCQkJYzMuMDA3LDEwLjMxNSw2LjAxNywyNy4yOTgsNi4wMTcsMjcuMjk4aDAuNDNjMCwwLDMuODctMTQuMTg4LDYuMjM0LTIzLjIxN2wxOS45OTItNzIuMjJINzIzLjExN0w3MjMuMTE3LDg5MS40ODh6DQoJCQkgTTczNi44NzIsOTgxLjU1NGMwLTMuODczLTIuMTUxLTUuMzc5LTYuNDUxLTUuMzc5aC02LjQ0NXYxOC4yNzVoMy4yMjh2LTcuOTU0aDEuOTMxbDQuNTE1LDcuNzM4aDMuMjI0bC00LjUxMS03Ljk1Nw0KCQkJQzczNS4xNTUsOTg2LjA2Miw3MzYuODcyLDk4NC41NjEsNzM2Ljg3Miw5ODEuNTU0eiBNNzI3LjQxNyw5ODMuOTEzdi01LjE2aDIuNzkzYzEuNzE3LDAsMy40MzgsMC40MzQsMy40MzgsMi41OA0KCQkJYzAsMi4zNjQtMS43MjIsMi43OTgtMy40MzgsMi43OThoLTIuNzkzVjk4My45MTN6IE03MjkuOTk3LDk2OS4zYy04LjM4MSwwLTE1LjI2MSw3LjMxLTE1LjI2MSwxNi4xMTkNCgkJCWMwLDguODE1LDYuODgsMTYuMTE5LDE1LjI2MSwxNi4xMTlzMTUuMjYxLTcuMzA0LDE1LjI2MS0xNi4xMTlDNzQ1LjA0Miw5NzYuMzg5LDczOC4zNzgsOTY5LjMsNzI5Ljk5Nyw5NjkuM3ogTTcyOS45OTcsOTk4LjMyDQoJCQljLTYuNDUxLDAtMTEuMzk2LTUuMzc5LTExLjM5Ni0xMi45MDFzNS4xNTgtMTIuODk2LDExLjM5Ni0xMi44OTZjNi40NDUsMCwxMS4zODgsNS4zNzQsMTEuMzg4LDEyLjg5Ng0KCQkJUzczNi4yMjcsOTk4LjMyLDcyOS45OTcsOTk4LjMyeiBNODk0LjQyOCw3NDQuNDY2bC0zNi41NDItMC40MjljLTcuMDk0LDAtMTEuMTc1LTIuNzk0LTExLjE3NS02LjQ0Ng0KCQkJYzAtNy41MjIsOS42NjktMTMuOTczLDI2Ljg2NC0yMi41NjljNS4xNTgsMC42NDUsNy4wODksMC42NDUsMTAuMTAzLDAuNjQ1YzU1LjI0MiwwLDk2LjA3NS0zNC4zODksOTYuMDc1LTgxLjY3Nw0KCQkJYzAtMTguMjcxLTUuMTU4LTMyLjI0My0xNS4yNTYtNDUuMTRjNC4wODEsMC40MzUsMTEuMTc3LDEuNTA2LDE3LjgzNiwxLjUwNmMxOC43MDQsMCwzMi44OTEtNi4wMTcsNDcuNzItMjAuNDE4bC0yOC4zNzMtNDUuNzg1DQoJCQljLTE1LjY4OSwxNS4wNDgtMzUuMDMyLDIzLjY0NS01My43MzYsMjMuNjQ1Yy04LjU5NCwwLTE3LjgzOC0yLjE0Ni0zMi4wMjctNi4wMmMtMTguNjk5LTQuNzI3LTMyLjAyMi02Ljg4LTQ2LjY0MS02Ljg4DQoJCQljLTY2LjQxMSwwLTEwOS42MiwzNi41NDEtMTA5LjYyLDkzLjA3NWMwLDQwLjgzOCwxOC4yNyw2NS45ODcsNTUuODksNzYuMjk5Yy00Mi43NzMsMTEuODI5LTQ3LjcxOCwyOC41OTEtNDcuNzE4LDQ2LjIxNg0KCQkJYzAsMTguOTEzLDcuNTIyLDMxLjE3MiwxOS43NzEsMzUuODk2YzEyLjI1MSw1LjM3NCwzMi4wMjcsNy45NTEsNjIuNTQ5LDguNTk3bDI5LjAxNSwwLjY0Mw0KCQkJYzI2Ljg3MiwwLjQzNCw0Ny43Miw4LjE3Miw0Ny43MiwzMi44ODhjMCwxMS4zOTQtNi42NjYsMjEuNDk2LTE2Ljc2OSwyNy45NDZjLTEwLjc0NSw3LjA5MS0yNS4zNjMsOS4wMjYtNDIuNTU1LDkuMDI2DQoJCQljLTMxLjM4NSwwLTQ4Ljc5MS0xMS44MjUtNDguNzkxLTMzLjk2YzAtNy41MjIsMC40MjktMTEuMTc1LDMuMDA5LTE3LjYyNmgtNjIuOTc5Yy0yLjU3OCw1LjM2Ny02LjAxNywxMi44OTYtNi4wMTcsMjcuOTQ0DQoJCQljMCwxOC42OTYsNy4wODgsMzQuODIsMjEuMjc2LDQ4Ljc4OWMyMy40MjksMjMuMjE1LDYxLjQ3NSwyOS42NjUsOTguNDQ3LDI5LjY2NWM0MC42MjQsMCw3OS43NDItOS42NzQsMTAyLjUyNC0zNS40NzENCgkJCWMxNC4xODUtMTYuMTE5LDIwLjg0OS0zMy43NDcsMjAuODQ5LTU2Ljk1NGMwLTI0LjcyNi03LjA5NC00My42MzEtMjIuMzU0LTU4LjY3OUM5NTQuODIzLDc1MS4zNDYsOTMzLjk3Niw3NDQuOSw4OTQuNDI4LDc0NC40NjZ6DQoJCQkgTTgyOC4wMDcsNjI4LjE4N2MwLTI1Ljc5MywxNC44MzQtNDAuODQsNDAuNjI0LTQwLjg0YzI2LjAwOCwwLDQxLjA1MywxNS4wNDcsNDEuMDUzLDQwLjg0YzAsMjUuMzYzLTE0LjYxNSwzOS4xMTgtNDEuNjk1LDM5LjExOA0KCQkJQzg0NC4xMzEsNjY3LjUyMiw4MjguMDA3LDY1Ni4zNDMsODI4LjAwNyw2MjguMTg3eiBNNjMzLjkxNSw1OTUuNTE0Yy0xMy43NiwwLTMxLjM4NSw5LjY3NC00Ny4yODgsMjQuNzIxdjE5NC41MjFoLTY4LjEzNFY2MTUuMjkNCgkJCWMwLTIzLjY0Ni0zLjAxMi00Ni4yMTctOS4wMjgtNjQuNDgxbDYwLjM5Ny0xOC4yNzFjNi4wMTcsMTEuMzkxLDkuNjc0LDIyLjk5Nyw5LjY3NCwzNC4zOQ0KCQkJYzEwLjEwMy03LjUyNSwxOC42OTktMTMuOTc0LDI5Ljg3NC0yMC40MjFjMTMuNzYtNy41MjIsMzEuMzg1LTExLjgyLDQ2LjY0Ni0xMS44MmMyOS4wMTUsMCw1NC4zNzksMTYuMTIyLDYyLjU0NiwzOS43NjYNCgkJCWMzLjY1NywxMC4xMDEsNS4xNTgsMjEuOTI1LDUuMTU4LDM5LjExNlY4MTQuNTRINjU2LjdWNjM1LjQ5NUM2NTYuNyw2MDQuNzU4LDY1MS43NTYsNTk1LjUxNCw2MzMuOTE1LDU5NS41MTR6IE01OTkuMDk0LDkwNC42MDUNCgkJCXY3MC45MjRjMCwxMi4yNTQsMy4wMTIsMTYuMzQsMTMuMTE1LDE2LjM0YzQuNTEsMCwzLjIxOCwwLDYuMjMxLTEuNTA2bDIuMTQ5LDEwLjk1OWMtNS4xNjMsMi43OTQtNy4wOTQsMy42NTctMTQuMTgyLDMuNjU3DQoJCQljLTUuMzc5LDAtOS40NjUtMS4wNzctMTMuMzMxLTMuMDA3Yy03LjA5Ni0zLjY1Mi05Ljg4OS0xMC43NTMtOS44ODktMjEuOTI4di03NS40MzloLTEzLjMyNnYtMTMuMTE3aDEzLjMyNnYtNDEuNjk2aDE2LjMzNQ0KCQkJdjQxLjY5NmgyNS41ODFsLTQuOTQ5LDEzLjExN0g1OTkuMDk0eiBNNTM0LjE4NCw4OTEuOTE3bDE2LjU0OC0yLjc4OHYxMTIuNDA5aC0xNi41NDhWODkxLjkxN3oiLz4NCgk8L2c+DQo8L2c+DQo8L3N2Zz4NCg==;" vertex="1" parent="zRMC7lDv2Pxj9WUFrpKq-1">
          <mxGeometry x="130" y="370" width="45" height="45" as="geometry" />
        </mxCell>
        <mxCell id="zRMC7lDv2Pxj9WUFrpKq-48" style="edgeStyle=orthogonalEdgeStyle;rounded=0;orthogonalLoop=1;jettySize=auto;html=1;" edge="1" parent="zRMC7lDv2Pxj9WUFrpKq-1" source="zRMC7lDv2Pxj9WUFrpKq-41" target="zRMC7lDv2Pxj9WUFrpKq-47">
          <mxGeometry relative="1" as="geometry" />
        </mxCell>
      </root>
    </mxGraphModel>
  </diagram>
</mxfile>
